<svg width="600" height="600" viewBox="0 0 600 600" fill="none" xmlns="http://www.w3.org/2000/svg">
<rect width="600" height="600" rx="80" fill="#4B1772"/>
<rect y="119" width="600" height="481" rx="80" fill="#591B89"/>
<rect y="119" width="600" height="481" rx="80" fill="#531A7F"/>
<rect y="299" width="600" height="301" rx="80" fill="#591B89"/>
<rect y="299" width="600" height="301" rx="80" fill="#5E1C90"/>
<mask id="mask0_954_1511" style="mask-type:alpha" maskUnits="userSpaceOnUse" x="0" y="0" width="600" height="600">
<rect width="600" height="600" rx="80" fill="#5E2C9B"/>
</mask>
<g mask="url(#mask0_954_1511)">
<path d="M21.9816 217.614C20.7826 240.284 5.49426 248.651 -2 250V48.3947C-2 -4.71908 31.974 -8.2816 48.961 -3.42363H318.754C326.748 2.51389 333.443 21.1901 296.272 48.3947C259.1 75.5993 214.834 44.6163 197.347 25.7242C174.565 52.9288 133.896 29.5026 116.409 14.3889C124.903 22.4855 134.995 44.5083 107.416 67.8266C79.8373 91.1448 47.9617 77.5425 35.4713 67.8266C43.2653 84.6675 23.2307 92.1164 12.2391 93.7357C15.4866 94.5454 24.6796 103.614 35.4713 133.409C46.263 163.205 21.9816 183.608 8.49196 190.085C13.4881 189.815 23.1807 194.943 21.9816 217.614Z" fill="#FE80F7"/>
<path d="M9.98163 203.614C8.78255 226.284 -6.50574 234.651 -14 236V34.3947C-14 -18.7191 19.974 -22.2816 36.961 -17.4236H306.754C314.748 -11.4861 321.443 7.19007 284.272 34.3947C247.1 61.5993 202.834 30.6163 185.347 11.7242C162.565 38.9288 121.896 15.5026 104.409 0.388916C112.903 8.48553 122.995 30.5083 95.4162 53.8266C67.8373 77.1448 35.9617 63.5425 23.4713 53.8266C31.2653 70.6675 11.2307 78.1164 0.239094 79.7357C3.48661 80.5454 12.6796 89.6136 23.4713 119.409C34.263 149.205 9.98163 169.608 -3.50804 176.085C1.48814 175.815 11.1807 180.943 9.98163 203.614Z" fill="#FF9FFA"/>
<g style="mix-blend-mode:hard-light" opacity="0.82">
<path d="M125.496 300.454C125.496 256.271 161.313 220.454 205.496 220.454H399.196C443.379 220.454 479.196 256.271 479.196 300.454V439.824H125.496V300.454Z" fill="#BC04BE"/>
<path d="M294.201 73.3879C298.202 67.4891 306.913 67.5494 310.831 73.5031L436.14 263.906C440.516 270.556 435.747 279.404 427.787 279.404H173.353C165.33 279.404 160.573 270.431 165.076 263.791L294.201 73.3879Z" fill="#BC04BE"/>
<path d="M295.582 71.6289L232.766 258.142L154.488 279.403L295.582 71.6289Z" fill="#CBACAC"/>
<path d="M309.111 71.6289L371.926 258.142L450.204 279.403L309.111 71.6289Z" fill="#CBACAC"/>
<path d="M303.312 68.7314L319.741 255.728H273.837L303.312 68.7314Z" fill="#CBACAC"/>
<path d="M111 331C111 286.817 146.817 251 191 251H409.826C454.009 251 489.826 286.817 489.826 331V600.833H111V331Z" fill="#EF34E5"/>
<g filter="url(#filter0_d_954_1511)">
<path d="M158.499 382.857C140.272 359.507 144.425 325.802 167.775 307.575C191.125 289.348 224.83 293.501 243.057 316.851L266.545 346.941L181.988 412.947L158.499 382.857Z" fill="#BC04BE"/>
<path d="M355.721 323.004C375.636 298.925 411.3 295.548 435.38 315.462C459.459 335.377 462.836 371.041 442.921 395.121L420.47 422.268L333.27 350.151L355.721 323.004Z" fill="#BC04BE"/>
<path d="M363.582 330.636C379.919 310.881 409.177 308.111 428.932 324.448C448.686 340.786 451.456 370.044 435.119 389.798L416.405 412.427L344.867 353.264L363.582 330.636Z" fill="#990F9B"/>
<path d="M239.177 324.837C222.84 305.082 193.582 302.312 173.827 318.65C154.073 334.987 151.303 364.245 167.64 383.999L186.355 406.628L257.892 347.465L239.177 324.837Z" fill="#990F9B"/>
<g filter="url(#filter1_d_954_1511)">
<path d="M164.151 463.019C164.151 387.764 225.158 326.758 300.413 326.758C375.668 326.758 436.675 387.764 436.675 463.019V600.246H164.151V463.019Z" fill="#BC04BE"/>
</g>
<path d="M231.799 502.158C231.799 464.531 262.302 434.027 299.93 434.027C337.557 434.027 368.061 464.531 368.061 502.158V600.246H231.799V502.158Z" fill="url(#paint0_linear_954_1511)"/>
<path d="M237.598 501.674L233.733 472.199H362.746L358.397 506.023L340.519 489.111L334.238 510.372L319.258 493.46L309.111 515.204L295.099 493.46L281.086 515.204L269.006 489.111L256.926 510.372L247.745 483.313L237.598 501.674Z" fill="#D9D9D9" stroke="#D9D9D9"/>
<ellipse cx="300.413" cy="452.389" rx="75.3787" ry="45.4203" fill="#E2B0B2"/>
<ellipse cx="299.93" cy="429.196" rx="46.8701" ry="22.2269" fill="#3B1E15"/>
<ellipse cx="36.8409" cy="33.716" rx="36.8409" ry="33.716" transform="matrix(0.811578 -0.584244 0.584248 0.811575 171.883 373.672)" fill="#E2B0B2"/>
<path d="M346.204 358.952C335.325 374.064 339.892 395.951 356.405 407.839C372.918 419.726 395.124 417.112 406.003 402C416.882 386.888 412.315 365 395.802 353.113C379.289 341.225 357.084 343.84 346.204 358.952Z" fill="#E2B0B2"/>
<ellipse cx="25.8961" cy="27.2241" rx="25.8961" ry="27.2241" transform="matrix(-0.599266 0.80055 0.800553 0.599262 368.173 347.051)" fill="#331755"/>
<ellipse cx="25.8961" cy="27.2241" rx="25.8961" ry="27.2241" transform="matrix(0.599266 0.80055 -0.800553 0.599262 227.068 347.051)" fill="#331755"/>
</g>
</g>
<path d="M492.634 26.7776C463.562 33.5425 428.765 11.7446 415 0H564.074C588.52 0 598.211 20.9053 600 31.358V86.675C581.5 89.4937 566.964 73.2862 562.009 64.8301C555.952 72.3466 536.241 85.4066 505.848 77.5142C475.455 69.6218 484.375 40.4013 492.634 26.7776Z" fill="#FE80F7"/>
<path d="M502.634 12.7776C473.562 19.5425 438.765 -2.25542 425 -14H574.074C598.52 -14 608.211 6.90535 610 17.358V72.675C591.5 75.4937 576.964 59.2862 572.009 50.8301C565.952 58.3466 546.241 71.4066 515.848 63.5142C485.455 55.6218 494.375 26.4013 502.634 12.7776Z" fill="#FF9FFA"/>
<path d="M76.4245 484.684C104.675 478.116 118 520.805 118 530H4.99999C7.30975 522.776 14.5943 507.407 25.2547 503.73C35.9151 500.052 46.0424 514.457 49.7736 522.119C49.2406 511.83 53.8245 489.938 76.4245 484.684Z" fill="#FE80F7"/>
<path d="M71.9434 491.476C96.4434 486.907 108 516.604 108 523H10C12.0031 517.974 18.3208 507.283 27.566 504.725C36.8113 502.166 45.5943 512.187 48.8302 517.517C48.3679 510.36 52.3434 495.131 71.9434 491.476Z" fill="#FF9FFA"/>
<path d="M604.91 462.136C587.813 461.114 554.028 465.403 555.67 490.729C557.311 516.055 576.87 522.386 586.445 522.386C567.296 529.874 529.818 549.345 533.101 567.318C535.173 578.659 541.165 584.633 546.852 587.498C524.599 582.188 485.726 575.933 457.189 581.615C424.362 588.151 412.052 596.592 410 599.996H561.825C577.212 600.166 607.577 594.686 605.936 571.403C604.295 548.12 604.568 488.857 604.91 462.136Z" fill="#FE80F7"/>
<path d="M605.049 478.125C590.133 477.185 560.657 481.132 562.089 504.439C563.521 527.746 580.586 533.573 588.939 533.573C572.233 540.464 539.536 558.383 542.4 574.923C544.207 585.36 549.435 590.858 554.396 593.494C534.982 588.608 501.067 582.852 476.17 588.08C447.53 594.095 436.79 601.864 435 604.996H567.459C580.884 605.153 607.376 600.11 605.944 578.683C604.512 557.255 604.751 502.716 605.049 478.125Z" fill="#FF9FFA"/>
<path d="M555.66 411.674C555.195 411.406 555.42 410.693 555.955 410.742L560.987 411.205C561.254 411.23 561.493 411.04 561.529 410.774L562.267 405.281C562.338 404.748 563.086 404.688 563.241 405.203L564.983 410.978C565.052 411.206 565.272 411.354 565.509 411.332L570.358 410.87C570.891 410.819 571.12 411.529 570.657 411.799L566.289 414.345C566.096 414.458 566.001 414.684 566.056 414.901L567.49 420.534C567.624 421.059 566.945 421.392 566.612 420.965L563.501 416.981C563.322 416.751 562.985 416.723 562.77 416.92L559.017 420.349C558.588 420.74 557.949 420.211 558.254 419.717L560.969 415.322C561.117 415.082 561.038 414.767 560.793 414.626L555.66 411.674Z" fill="#D100AB"/>
<path d="M556.66 546.674C556.195 546.406 556.42 545.693 556.955 545.742L561.987 546.205C562.254 546.23 562.493 546.04 562.529 545.774L563.267 540.281C563.338 539.748 564.086 539.688 564.241 540.203L565.983 545.978C566.052 546.206 566.272 546.354 566.509 546.332L571.358 545.87C571.891 545.819 572.12 546.529 571.657 546.799L567.289 549.345C567.096 549.458 567.001 549.684 567.056 549.901L568.49 555.534C568.624 556.059 567.945 556.392 567.612 555.965L564.501 551.981C564.322 551.751 563.985 551.723 563.77 551.92L560.017 555.349C559.588 555.74 558.949 555.211 559.254 554.717L561.969 550.322C562.117 550.082 562.038 549.767 561.793 549.626L556.66 546.674Z" fill="#D100AB"/>
<path d="M499.66 577.674C499.195 577.406 499.42 576.693 499.955 576.742L504.987 577.205C505.254 577.23 505.493 577.04 505.529 576.774L506.267 571.281C506.338 570.748 507.086 570.688 507.241 571.203L508.983 576.978C509.052 577.206 509.272 577.354 509.509 577.332L514.358 576.87C514.891 576.819 515.12 577.529 514.657 577.799L510.289 580.345C510.096 580.458 510.001 580.684 510.056 580.901L511.49 586.534C511.624 587.059 510.945 587.392 510.612 586.965L507.501 582.981C507.322 582.751 506.985 582.723 506.77 582.92L503.017 586.349C502.588 586.74 501.949 586.211 502.254 585.717L504.969 581.322C505.117 581.082 505.038 580.767 504.793 580.626L499.66 577.674Z" fill="#D100AB"/>
<path d="M470.66 220.674C470.195 220.406 470.42 219.693 470.955 219.742L475.987 220.205C476.254 220.23 476.493 220.04 476.529 219.774L477.267 214.281C477.338 213.748 478.086 213.688 478.241 214.203L479.983 219.978C480.052 220.206 480.272 220.354 480.509 220.332L485.358 219.87C485.891 219.819 486.12 220.529 485.657 220.799L481.289 223.345C481.096 223.458 481.001 223.684 481.056 223.901L482.49 229.534C482.624 230.059 481.945 230.392 481.612 229.965L478.501 225.981C478.322 225.751 477.985 225.723 477.77 225.92L474.017 229.349C473.588 229.74 472.949 229.211 473.254 228.717L475.969 224.322C476.117 224.082 476.038 223.767 475.793 223.626L470.66 220.674Z" fill="#D100AB"/>
<path d="M573.66 68.6737C573.195 68.4061 573.42 67.6932 573.955 67.7424L578.987 68.2052C579.254 68.2298 579.493 68.0396 579.529 67.7739L580.267 62.2809C580.338 61.748 581.086 61.6883 581.241 62.2031L582.983 67.9783C583.052 68.2064 583.272 68.3543 583.509 68.3317L588.358 67.8696C588.891 67.8187 589.12 68.5294 588.657 68.7993L584.289 71.3452C584.096 71.4576 584.001 71.6842 584.056 71.9005L585.49 77.5341C585.624 78.0587 584.945 78.3918 584.612 77.9651L581.501 73.9811C581.322 73.7514 580.985 73.7231 580.77 73.9197L577.017 77.3491C576.588 77.7405 575.949 77.2108 576.254 76.7172L578.969 72.3224C579.117 72.0823 579.038 71.767 578.793 71.6262L573.66 68.6737Z" fill="#D100AB"/>
<path d="M513.66 17.6737C513.195 17.4061 513.42 16.6932 513.955 16.7424L518.987 17.2052C519.254 17.2298 519.493 17.0396 519.529 16.7739L520.267 11.2809C520.338 10.748 521.086 10.6883 521.241 11.2031L522.983 16.9783C523.052 17.2064 523.272 17.3543 523.509 17.3317L528.358 16.8696C528.891 16.8187 529.12 17.5294 528.657 17.7993L524.289 20.3452C524.096 20.4576 524.001 20.6842 524.056 20.9005L525.49 26.5341C525.624 27.0587 524.945 27.3918 524.612 26.9651L521.501 22.9811C521.322 22.7514 520.985 22.7231 520.77 22.9197L517.017 26.3491C516.588 26.7405 515.949 26.2108 516.254 25.7172L518.969 21.3224C519.117 21.0823 519.038 20.767 518.793 20.6262L513.66 17.6737Z" fill="#D100AB"/>
<path d="M443.66 37.6737C443.195 37.4061 443.42 36.6932 443.955 36.7424L448.987 37.2052C449.254 37.2298 449.493 37.0396 449.529 36.7739L450.267 31.2809C450.338 30.748 451.086 30.6883 451.241 31.2031L452.983 36.9783C453.052 37.2064 453.272 37.3543 453.509 37.3317L458.358 36.8696C458.891 36.8187 459.12 37.5294 458.657 37.7993L454.289 40.3452C454.096 40.4576 454.001 40.6842 454.056 40.9005L455.49 46.5341C455.624 47.0587 454.945 47.3918 454.612 46.9651L451.501 42.9811C451.322 42.7514 450.985 42.7231 450.77 42.9197L447.017 46.3491C446.588 46.7405 445.949 46.2108 446.254 45.7172L448.969 41.3224C449.117 41.0823 449.038 40.767 448.793 40.6262L443.66 37.6737Z" fill="#D100AB"/>
<path d="M269.66 28.6737C269.195 28.4061 269.42 27.6932 269.955 27.7424L274.987 28.2052C275.254 28.2298 275.493 28.0396 275.529 27.7739L276.267 22.2809C276.338 21.748 277.086 21.6883 277.241 22.2031L278.983 27.9783C279.052 28.2064 279.272 28.3543 279.509 28.3317L284.358 27.8696C284.891 27.8187 285.12 28.5294 284.657 28.7993L280.289 31.3452C280.096 31.4576 280.001 31.6842 280.056 31.9005L281.49 37.5341C281.624 38.0587 280.945 38.3918 280.612 37.9651L277.501 33.9811C277.322 33.7514 276.985 33.7231 276.77 33.9197L273.017 37.3491C272.588 37.7405 271.949 37.2108 272.254 36.7172L274.969 32.3224C275.117 32.0823 275.038 31.767 274.793 31.6262L269.66 28.6737Z" fill="#D100AB"/>
<path d="M37.6599 41.6737C37.1946 41.4061 37.4205 40.6932 37.9549 40.7424L42.9873 41.2052C43.2542 41.2298 43.4929 41.0396 43.5286 40.7739L44.2668 35.2809C44.3385 34.748 45.0858 34.6883 45.2411 35.2031L46.9829 40.9783C47.0517 41.2064 47.2718 41.3543 47.509 41.3317L52.3576 40.8696C52.8913 40.8187 53.12 41.5294 52.6568 41.7993L48.2888 44.3452C48.0959 44.4576 48.001 44.6842 48.056 44.9005L49.4902 50.5341C49.6238 51.0587 48.9447 51.3918 48.6116 50.9651L45.5009 46.9811C45.3216 46.7514 44.9846 46.7231 44.7695 46.9197L41.0167 50.3491C40.5884 50.7405 39.9491 50.2108 40.254 49.7172L42.9691 45.3224C43.1174 45.0823 43.0377 44.767 42.793 44.6262L37.6599 41.6737Z" fill="#D100AB"/>
<path d="M33.6599 479.674C33.1946 479.406 33.4205 478.693 33.9549 478.742L38.9873 479.205C39.2542 479.23 39.4929 479.04 39.5286 478.774L40.2668 473.281C40.3385 472.748 41.0858 472.688 41.2411 473.203L42.9829 478.978C43.0517 479.206 43.2718 479.354 43.509 479.332L48.3576 478.87C48.8913 478.819 49.12 479.529 48.6568 479.799L44.2888 482.345C44.0959 482.458 44.001 482.684 44.056 482.901L45.4902 488.534C45.6238 489.059 44.9447 489.392 44.6116 488.965L41.5009 484.981C41.3216 484.751 40.9846 484.723 40.7695 484.92L37.0167 488.349C36.5884 488.74 35.9491 488.211 36.254 487.717L38.9691 483.322C39.1174 483.082 39.0377 482.767 38.793 482.626L33.6599 479.674Z" fill="#D100AB"/>
<path d="M94.6599 251.674C94.1946 251.406 94.4205 250.693 94.9549 250.742L99.9873 251.205C100.254 251.23 100.493 251.04 100.529 250.774L101.267 245.281C101.338 244.748 102.086 244.688 102.241 245.203L103.983 250.978C104.052 251.206 104.272 251.354 104.509 251.332L109.358 250.87C109.891 250.819 110.12 251.529 109.657 251.799L105.289 254.345C105.096 254.458 105.001 254.684 105.056 254.901L106.49 260.534C106.624 261.059 105.945 261.392 105.612 260.965L102.501 256.981C102.322 256.751 101.985 256.723 101.77 256.92L98.0167 260.349C97.5884 260.74 96.9491 260.211 97.254 259.717L99.9691 255.322C100.117 255.082 100.038 254.767 99.793 254.626L94.6599 251.674Z" fill="#D100AB"/>
<path d="M150.66 10.6737C150.195 10.4061 150.42 9.69321 150.955 9.74237L155.987 10.2052C156.254 10.2298 156.493 10.0396 156.529 9.77394L157.267 4.28092C157.338 3.74795 158.086 3.68829 158.241 4.20314L159.983 9.97834C160.052 10.2064 160.272 10.3543 160.509 10.3317L165.358 9.86959C165.891 9.81872 166.12 10.5294 165.657 10.7993L161.289 13.3452C161.096 13.4576 161.001 13.6842 161.056 13.9005L162.49 19.5341C162.624 20.0587 161.945 20.3918 161.612 19.9651L158.501 15.9811C158.322 15.7514 157.985 15.7231 157.77 15.9197L154.017 19.3491C153.588 19.7405 152.949 19.2108 153.254 18.7172L155.969 14.3224C156.117 14.0823 156.038 13.767 155.793 13.6262L150.66 10.6737Z" fill="#D100AB"/>
<path d="M10.6599 141.674C10.1946 141.406 10.4205 140.693 10.9549 140.742L15.9873 141.205C16.2542 141.23 16.4929 141.04 16.5286 140.774L17.2668 135.281C17.3385 134.748 18.0858 134.688 18.2411 135.203L19.9829 140.978C20.0517 141.206 20.2718 141.354 20.509 141.332L25.3576 140.87C25.8913 140.819 26.12 141.529 25.6568 141.799L21.2888 144.345C21.0959 144.458 21.001 144.684 21.056 144.901L22.4902 150.534C22.6238 151.059 21.9447 151.392 21.6116 150.965L18.5009 146.981C18.3216 146.751 17.9846 146.723 17.7695 146.92L14.0167 150.349C13.5884 150.74 12.9491 150.211 13.254 149.717L15.9691 145.322C16.1174 145.082 16.0377 144.767 15.793 144.626L10.6599 141.674Z" fill="#D100AB"/>
<path d="M59.6599 111.674C59.1946 111.406 59.4205 110.693 59.9549 110.742L64.9873 111.205C65.2542 111.23 65.4929 111.04 65.5286 110.774L66.2668 105.281C66.3385 104.748 67.0858 104.688 67.2411 105.203L68.9829 110.978C69.0517 111.206 69.2718 111.354 69.509 111.332L74.3576 110.87C74.8913 110.819 75.12 111.529 74.6568 111.799L70.2888 114.345C70.0959 114.458 70.001 114.684 70.056 114.901L71.4902 120.534C71.6238 121.059 70.9447 121.392 70.6116 120.965L67.5009 116.981C67.3216 116.751 66.9846 116.723 66.7695 116.92L63.0167 120.349C62.5884 120.74 61.9491 120.211 62.254 119.717L64.9691 115.322C65.1174 115.082 65.0377 114.767 64.793 114.626L59.6599 111.674Z" fill="#D100AB"/>
<path d="M507.66 481.674C507.195 481.406 507.42 480.693 507.955 480.742L512.987 481.205C513.254 481.23 513.493 481.04 513.529 480.774L514.267 475.281C514.338 474.748 515.086 474.688 515.241 475.203L516.983 480.978C517.052 481.206 517.272 481.354 517.509 481.332L522.358 480.87C522.891 480.819 523.12 481.529 522.657 481.799L518.289 484.345C518.096 484.458 518.001 484.684 518.056 484.901L519.49 490.534C519.624 491.059 518.945 491.392 518.612 490.965L515.501 486.981C515.322 486.751 514.985 486.723 514.77 486.92L511.017 490.349C510.588 490.74 509.949 490.211 510.254 489.717L512.969 485.322C513.117 485.082 513.038 484.767 512.793 484.626L507.66 481.674Z" fill="#D100AB"/>
</g>
<mask id="mask1_954_1511" style="mask-type:alpha" maskUnits="userSpaceOnUse" x="0" y="0" width="600" height="600">
<rect width="600" height="600" rx="80" fill="#5E2C9B"/>
</mask>
<g mask="url(#mask1_954_1511)">
<path d="M21.9816 217.614C20.7826 240.284 5.49426 248.651 -2 250V48.3947C-2 -4.71908 31.974 -8.2816 48.961 -3.42363H318.754C326.748 2.51389 333.443 21.1901 296.272 48.3947C259.1 75.5993 214.834 44.6163 197.347 25.7242C174.565 52.9288 133.896 29.5026 116.409 14.3889C124.903 22.4855 134.995 44.5083 107.416 67.8266C79.8373 91.1448 47.9617 77.5425 35.4713 67.8266C43.2653 84.6675 23.2307 92.1164 12.2391 93.7357C15.4866 94.5454 24.6796 103.614 35.4713 133.409C46.263 163.205 21.9816 183.608 8.49196 190.085C13.4881 189.815 23.1807 194.943 21.9816 217.614Z" fill="#FE80F7"/>
<path d="M9.98163 203.614C8.78255 226.284 -6.50574 234.651 -14 236V34.3947C-14 -18.7191 19.974 -22.2816 36.961 -17.4236H306.754C314.748 -11.4861 321.443 7.19007 284.272 34.3947C247.1 61.5993 202.834 30.6163 185.347 11.7242C162.565 38.9288 121.896 15.5026 104.409 0.388916C112.903 8.48553 122.995 30.5083 95.4162 53.8266C67.8373 77.1448 35.9617 63.5425 23.4713 53.8266C31.2653 70.6675 11.2307 78.1164 0.239094 79.7357C3.48661 80.5454 12.6796 89.6136 23.4713 119.409C34.263 149.205 9.98163 169.608 -3.50804 176.085C1.48814 175.815 11.1807 180.943 9.98163 203.614Z" fill="#FF9FFA"/>
<g style="mix-blend-mode:hard-light" opacity="0.82">
<path d="M125.496 300.454C125.496 256.271 161.313 220.454 205.496 220.454H399.196C443.379 220.454 479.196 256.271 479.196 300.454V439.824H125.496V300.454Z" fill="#BC04BE"/>
<path d="M294.201 73.3879C298.202 67.4891 306.913 67.5494 310.831 73.5031L436.14 263.906C440.516 270.556 435.747 279.404 427.787 279.404H173.353C165.33 279.404 160.573 270.431 165.076 263.791L294.201 73.3879Z" fill="#BC04BE"/>
<path d="M295.582 71.6289L232.766 258.142L154.488 279.403L295.582 71.6289Z" fill="#D871E2"/>
<path d="M309.111 71.6289L371.926 258.142L450.204 279.403L309.111 71.6289Z" fill="#D871E2"/>
<path d="M303.312 68.7314L319.741 255.728H273.837L303.312 68.7314Z" fill="#D871E2"/>
<path d="M111 331C111 286.817 146.817 251 191 251H409.826C454.009 251 489.826 286.817 489.826 331V600.833H111V331Z" fill="#EF34E5"/>
<g filter="url(#filter2_d_954_1511)">
<path d="M158.499 382.857C140.272 359.507 144.425 325.802 167.775 307.575C191.125 289.348 224.83 293.501 243.057 316.851L266.545 346.941L181.988 412.947L158.499 382.857Z" fill="#BC04BE"/>
<path d="M355.721 323.004C375.636 298.925 411.3 295.548 435.38 315.462C459.459 335.377 462.836 371.041 442.921 395.121L420.47 422.268L333.27 350.151L355.721 323.004Z" fill="#BC04BE"/>
<path d="M363.582 330.636C379.919 310.881 409.177 308.111 428.932 324.448C448.686 340.786 451.456 370.044 435.119 389.798L416.405 412.427L344.867 353.264L363.582 330.636Z" fill="#990F9B"/>
<path d="M239.177 324.837C222.84 305.082 193.582 302.312 173.827 318.65C154.073 334.987 151.303 364.245 167.64 383.999L186.355 406.628L257.892 347.465L239.177 324.837Z" fill="#990F9B"/>
<g filter="url(#filter3_d_954_1511)">
<path d="M164.151 463.019C164.151 387.764 225.158 326.758 300.413 326.758C375.668 326.758 436.675 387.764 436.675 463.019V600.246H164.151V463.019Z" fill="#BC04BE"/>
</g>
<path d="M231.799 502.158C231.799 464.531 262.302 434.027 299.93 434.027C337.557 434.027 368.061 464.531 368.061 502.158V600.246H231.799V502.158Z" fill="url(#paint1_linear_954_1511)"/>
<path d="M237.598 501.674L233.733 472.199H362.746L358.397 506.023L340.519 489.111L334.238 510.372L319.258 493.46L309.111 515.204L295.099 493.46L281.086 515.204L269.006 489.111L256.926 510.372L247.745 483.313L237.598 501.674Z" fill="#D9D9D9" stroke="#D9D9D9"/>
<ellipse cx="300.413" cy="452.389" rx="75.3787" ry="45.4203" fill="#E2B0B2"/>
<ellipse cx="299.93" cy="429.196" rx="46.8701" ry="22.2269" fill="#3B1E15"/>
<ellipse cx="36.8409" cy="33.716" rx="36.8409" ry="33.716" transform="matrix(0.811578 -0.584244 0.584248 0.811575 171.883 373.672)" fill="#E2B0B2"/>
<path d="M346.204 358.952C335.325 374.064 339.892 395.951 356.405 407.839C372.918 419.726 395.124 417.112 406.003 402C416.882 386.888 412.315 365 395.802 353.113C379.289 341.225 357.084 343.84 346.204 358.952Z" fill="#E2B0B2"/>
<ellipse cx="25.8961" cy="27.2241" rx="25.8961" ry="27.2241" transform="matrix(-0.599266 0.80055 0.800553 0.599262 368.173 347.051)" fill="#331755"/>
<ellipse cx="25.8961" cy="27.2241" rx="25.8961" ry="27.2241" transform="matrix(0.599266 0.80055 -0.800553 0.599262 227.068 347.051)" fill="#331755"/>
</g>
</g>
<path d="M492.634 26.7776C463.562 33.5425 428.765 11.7446 415 0H564.074C588.52 0 598.211 20.9053 600 31.358V86.675C581.5 89.4937 566.964 73.2862 562.009 64.8301C555.952 72.3466 536.241 85.4066 505.848 77.5142C475.455 69.6218 484.375 40.4013 492.634 26.7776Z" fill="#FE80F7"/>
<path d="M502.634 12.7776C473.562 19.5425 438.765 -2.25542 425 -14H574.074C598.52 -14 608.211 6.90535 610 17.358V72.675C591.5 75.4937 576.964 59.2862 572.009 50.8301C565.952 58.3466 546.241 71.4066 515.848 63.5142C485.455 55.6218 494.375 26.4013 502.634 12.7776Z" fill="#FF9FFA"/>
<path d="M76.4245 484.684C104.675 478.116 118 520.805 118 530H4.99999C7.30975 522.776 14.5943 507.407 25.2547 503.73C35.9151 500.052 46.0424 514.457 49.7736 522.119C49.2406 511.83 53.8245 489.938 76.4245 484.684Z" fill="#FE80F7"/>
<path d="M71.9434 491.476C96.4434 486.907 108 516.604 108 523H10C12.0031 517.974 18.3208 507.283 27.566 504.725C36.8113 502.166 45.5943 512.187 48.8302 517.517C48.3679 510.36 52.3434 495.131 71.9434 491.476Z" fill="#FF9FFA"/>
<path d="M604.91 462.136C587.813 461.114 554.028 465.403 555.67 490.729C557.311 516.055 576.87 522.386 586.445 522.386C567.296 529.874 529.818 549.345 533.101 567.318C535.173 578.659 541.165 584.633 546.852 587.498C524.599 582.188 485.726 575.933 457.189 581.615C424.362 588.151 412.052 596.592 410 599.996H561.825C577.212 600.166 607.577 594.686 605.936 571.403C604.295 548.12 604.568 488.857 604.91 462.136Z" fill="#FE80F7"/>
<path d="M605.049 478.125C590.133 477.185 560.657 481.132 562.089 504.439C563.521 527.746 580.586 533.573 588.939 533.573C572.233 540.464 539.536 558.383 542.4 574.923C544.207 585.36 549.435 590.858 554.396 593.494C534.982 588.608 501.067 582.852 476.17 588.08C447.53 594.095 436.79 601.864 435 604.996H567.459C580.884 605.153 607.376 600.11 605.944 578.683C604.512 557.255 604.751 502.716 605.049 478.125Z" fill="#FF9FFA"/>
<path d="M555.66 411.674C555.195 411.406 555.42 410.693 555.955 410.742L560.987 411.205C561.254 411.23 561.493 411.04 561.529 410.774L562.267 405.281C562.338 404.748 563.086 404.688 563.241 405.203L564.983 410.978C565.052 411.206 565.272 411.354 565.509 411.332L570.358 410.87C570.891 410.819 571.12 411.529 570.657 411.799L566.289 414.345C566.096 414.458 566.001 414.684 566.056 414.901L567.49 420.534C567.624 421.059 566.945 421.392 566.612 420.965L563.501 416.981C563.322 416.751 562.985 416.723 562.77 416.92L559.017 420.349C558.588 420.74 557.949 420.211 558.254 419.717L560.969 415.322C561.117 415.082 561.038 414.767 560.793 414.626L555.66 411.674Z" fill="#D100AB"/>
<path d="M556.66 546.674C556.195 546.406 556.42 545.693 556.955 545.742L561.987 546.205C562.254 546.23 562.493 546.04 562.529 545.774L563.267 540.281C563.338 539.748 564.086 539.688 564.241 540.203L565.983 545.978C566.052 546.206 566.272 546.354 566.509 546.332L571.358 545.87C571.891 545.819 572.12 546.529 571.657 546.799L567.289 549.345C567.096 549.458 567.001 549.684 567.056 549.901L568.49 555.534C568.624 556.059 567.945 556.392 567.612 555.965L564.501 551.981C564.322 551.751 563.985 551.723 563.77 551.92L560.017 555.349C559.588 555.74 558.949 555.211 559.254 554.717L561.969 550.322C562.117 550.082 562.038 549.767 561.793 549.626L556.66 546.674Z" fill="#D100AB"/>
<path d="M499.66 577.674C499.195 577.406 499.42 576.693 499.955 576.742L504.987 577.205C505.254 577.23 505.493 577.04 505.529 576.774L506.267 571.281C506.338 570.748 507.086 570.688 507.241 571.203L508.983 576.978C509.052 577.206 509.272 577.354 509.509 577.332L514.358 576.87C514.891 576.819 515.12 577.529 514.657 577.799L510.289 580.345C510.096 580.458 510.001 580.684 510.056 580.901L511.49 586.534C511.624 587.059 510.945 587.392 510.612 586.965L507.501 582.981C507.322 582.751 506.985 582.723 506.77 582.92L503.017 586.349C502.588 586.74 501.949 586.211 502.254 585.717L504.969 581.322C505.117 581.082 505.038 580.767 504.793 580.626L499.66 577.674Z" fill="#D100AB"/>
<path d="M470.66 220.674C470.195 220.406 470.42 219.693 470.955 219.742L475.987 220.205C476.254 220.23 476.493 220.04 476.529 219.774L477.267 214.281C477.338 213.748 478.086 213.688 478.241 214.203L479.983 219.978C480.052 220.206 480.272 220.354 480.509 220.332L485.358 219.87C485.891 219.819 486.12 220.529 485.657 220.799L481.289 223.345C481.096 223.458 481.001 223.684 481.056 223.901L482.49 229.534C482.624 230.059 481.945 230.392 481.612 229.965L478.501 225.981C478.322 225.751 477.985 225.723 477.77 225.92L474.017 229.349C473.588 229.74 472.949 229.211 473.254 228.717L475.969 224.322C476.117 224.082 476.038 223.767 475.793 223.626L470.66 220.674Z" fill="#D100AB"/>
<path d="M573.66 68.6737C573.195 68.4061 573.42 67.6932 573.955 67.7424L578.987 68.2052C579.254 68.2298 579.493 68.0396 579.529 67.7739L580.267 62.2809C580.338 61.748 581.086 61.6883 581.241 62.2031L582.983 67.9783C583.052 68.2064 583.272 68.3543 583.509 68.3317L588.358 67.8696C588.891 67.8187 589.12 68.5294 588.657 68.7993L584.289 71.3452C584.096 71.4576 584.001 71.6842 584.056 71.9005L585.49 77.5341C585.624 78.0587 584.945 78.3918 584.612 77.9651L581.501 73.9811C581.322 73.7514 580.985 73.7231 580.77 73.9197L577.017 77.3491C576.588 77.7405 575.949 77.2108 576.254 76.7172L578.969 72.3224C579.117 72.0823 579.038 71.767 578.793 71.6262L573.66 68.6737Z" fill="#D100AB"/>
<path d="M513.66 17.6737C513.195 17.4061 513.42 16.6932 513.955 16.7424L518.987 17.2052C519.254 17.2298 519.493 17.0396 519.529 16.7739L520.267 11.2809C520.338 10.748 521.086 10.6883 521.241 11.2031L522.983 16.9783C523.052 17.2064 523.272 17.3543 523.509 17.3317L528.358 16.8696C528.891 16.8187 529.12 17.5294 528.657 17.7993L524.289 20.3452C524.096 20.4576 524.001 20.6842 524.056 20.9005L525.49 26.5341C525.624 27.0587 524.945 27.3918 524.612 26.9651L521.501 22.9811C521.322 22.7514 520.985 22.7231 520.77 22.9197L517.017 26.3491C516.588 26.7405 515.949 26.2108 516.254 25.7172L518.969 21.3224C519.117 21.0823 519.038 20.767 518.793 20.6262L513.66 17.6737Z" fill="#D100AB"/>
<path d="M443.66 37.6737C443.195 37.4061 443.42 36.6932 443.955 36.7424L448.987 37.2052C449.254 37.2298 449.493 37.0396 449.529 36.7739L450.267 31.2809C450.338 30.748 451.086 30.6883 451.241 31.2031L452.983 36.9783C453.052 37.2064 453.272 37.3543 453.509 37.3317L458.358 36.8696C458.891 36.8187 459.12 37.5294 458.657 37.7993L454.289 40.3452C454.096 40.4576 454.001 40.6842 454.056 40.9005L455.49 46.5341C455.624 47.0587 454.945 47.3918 454.612 46.9651L451.501 42.9811C451.322 42.7514 450.985 42.7231 450.77 42.9197L447.017 46.3491C446.588 46.7405 445.949 46.2108 446.254 45.7172L448.969 41.3224C449.117 41.0823 449.038 40.767 448.793 40.6262L443.66 37.6737Z" fill="#D100AB"/>
<path d="M269.66 28.6737C269.195 28.4061 269.42 27.6932 269.955 27.7424L274.987 28.2052C275.254 28.2298 275.493 28.0396 275.529 27.7739L276.267 22.2809C276.338 21.748 277.086 21.6883 277.241 22.2031L278.983 27.9783C279.052 28.2064 279.272 28.3543 279.509 28.3317L284.358 27.8696C284.891 27.8187 285.12 28.5294 284.657 28.7993L280.289 31.3452C280.096 31.4576 280.001 31.6842 280.056 31.9005L281.49 37.5341C281.624 38.0587 280.945 38.3918 280.612 37.9651L277.501 33.9811C277.322 33.7514 276.985 33.7231 276.77 33.9197L273.017 37.3491C272.588 37.7405 271.949 37.2108 272.254 36.7172L274.969 32.3224C275.117 32.0823 275.038 31.767 274.793 31.6262L269.66 28.6737Z" fill="#D100AB"/>
<path d="M37.6599 41.6737C37.1946 41.4061 37.4205 40.6932 37.9549 40.7424L42.9873 41.2052C43.2542 41.2298 43.4929 41.0396 43.5286 40.7739L44.2668 35.2809C44.3385 34.748 45.0858 34.6883 45.2411 35.2031L46.9829 40.9783C47.0517 41.2064 47.2718 41.3543 47.509 41.3317L52.3576 40.8696C52.8913 40.8187 53.12 41.5294 52.6568 41.7993L48.2888 44.3452C48.0959 44.4576 48.001 44.6842 48.056 44.9005L49.4902 50.5341C49.6238 51.0587 48.9447 51.3918 48.6116 50.9651L45.5009 46.9811C45.3216 46.7514 44.9846 46.7231 44.7695 46.9197L41.0167 50.3491C40.5884 50.7405 39.9491 50.2108 40.254 49.7172L42.9691 45.3224C43.1174 45.0823 43.0377 44.767 42.793 44.6262L37.6599 41.6737Z" fill="#D100AB"/>
<path d="M33.6599 479.674C33.1946 479.406 33.4205 478.693 33.9549 478.742L38.9873 479.205C39.2542 479.23 39.4929 479.04 39.5286 478.774L40.2668 473.281C40.3385 472.748 41.0858 472.688 41.2411 473.203L42.9829 478.978C43.0517 479.206 43.2718 479.354 43.509 479.332L48.3576 478.87C48.8913 478.819 49.12 479.529 48.6568 479.799L44.2888 482.345C44.0959 482.458 44.001 482.684 44.056 482.901L45.4902 488.534C45.6238 489.059 44.9447 489.392 44.6116 488.965L41.5009 484.981C41.3216 484.751 40.9846 484.723 40.7695 484.92L37.0167 488.349C36.5884 488.74 35.9491 488.211 36.254 487.717L38.9691 483.322C39.1174 483.082 39.0377 482.767 38.793 482.626L33.6599 479.674Z" fill="#D100AB"/>
<path d="M94.6599 251.674C94.1946 251.406 94.4205 250.693 94.9549 250.742L99.9873 251.205C100.254 251.23 100.493 251.04 100.529 250.774L101.267 245.281C101.338 244.748 102.086 244.688 102.241 245.203L103.983 250.978C104.052 251.206 104.272 251.354 104.509 251.332L109.358 250.87C109.891 250.819 110.12 251.529 109.657 251.799L105.289 254.345C105.096 254.458 105.001 254.684 105.056 254.901L106.49 260.534C106.624 261.059 105.945 261.392 105.612 260.965L102.501 256.981C102.322 256.751 101.985 256.723 101.77 256.92L98.0167 260.349C97.5884 260.74 96.9491 260.211 97.254 259.717L99.9691 255.322C100.117 255.082 100.038 254.767 99.793 254.626L94.6599 251.674Z" fill="#D100AB"/>
<path d="M150.66 10.6737C150.195 10.4061 150.42 9.69321 150.955 9.74237L155.987 10.2052C156.254 10.2298 156.493 10.0396 156.529 9.77394L157.267 4.28092C157.338 3.74795 158.086 3.68829 158.241 4.20314L159.983 9.97834C160.052 10.2064 160.272 10.3543 160.509 10.3317L165.358 9.86959C165.891 9.81872 166.12 10.5294 165.657 10.7993L161.289 13.3452C161.096 13.4576 161.001 13.6842 161.056 13.9005L162.49 19.5341C162.624 20.0587 161.945 20.3918 161.612 19.9651L158.501 15.9811C158.322 15.7514 157.985 15.7231 157.77 15.9197L154.017 19.3491C153.588 19.7405 152.949 19.2108 153.254 18.7172L155.969 14.3224C156.117 14.0823 156.038 13.767 155.793 13.6262L150.66 10.6737Z" fill="#D100AB"/>
<path d="M10.6599 141.674C10.1946 141.406 10.4205 140.693 10.9549 140.742L15.9873 141.205C16.2542 141.23 16.4929 141.04 16.5286 140.774L17.2668 135.281C17.3385 134.748 18.0858 134.688 18.2411 135.203L19.9829 140.978C20.0517 141.206 20.2718 141.354 20.509 141.332L25.3576 140.87C25.8913 140.819 26.12 141.529 25.6568 141.799L21.2888 144.345C21.0959 144.458 21.001 144.684 21.056 144.901L22.4902 150.534C22.6238 151.059 21.9447 151.392 21.6116 150.965L18.5009 146.981C18.3216 146.751 17.9846 146.723 17.7695 146.92L14.0167 150.349C13.5884 150.74 12.9491 150.211 13.254 149.717L15.9691 145.322C16.1174 145.082 16.0377 144.767 15.793 144.626L10.6599 141.674Z" fill="#D100AB"/>
<path d="M59.6599 111.674C59.1946 111.406 59.4205 110.693 59.9549 110.742L64.9873 111.205C65.2542 111.23 65.4929 111.04 65.5286 110.774L66.2668 105.281C66.3385 104.748 67.0858 104.688 67.2411 105.203L68.9829 110.978C69.0517 111.206 69.2718 111.354 69.509 111.332L74.3576 110.87C74.8913 110.819 75.12 111.529 74.6568 111.799L70.2888 114.345C70.0959 114.458 70.001 114.684 70.056 114.901L71.4902 120.534C71.6238 121.059 70.9447 121.392 70.6116 120.965L67.5009 116.981C67.3216 116.751 66.9846 116.723 66.7695 116.92L63.0167 120.349C62.5884 120.74 61.9491 120.211 62.254 119.717L64.9691 115.322C65.1174 115.082 65.0377 114.767 64.793 114.626L59.6599 111.674Z" fill="#D100AB"/>
<path d="M507.66 481.674C507.195 481.406 507.42 480.693 507.955 480.742L512.987 481.205C513.254 481.23 513.493 481.04 513.529 480.774L514.267 475.281C514.338 474.748 515.086 474.688 515.241 475.203L516.983 480.978C517.052 481.206 517.272 481.354 517.509 481.332L522.358 480.87C522.891 480.819 523.12 481.529 522.657 481.799L518.289 484.345C518.096 484.458 518.001 484.684 518.056 484.901L519.49 490.534C519.624 491.059 518.945 491.392 518.612 490.965L515.501 486.981C515.322 486.751 514.985 486.723 514.77 486.92L511.017 490.349C510.588 490.74 509.949 490.211 510.254 489.717L512.969 485.322C513.117 485.082 513.038 484.767 512.793 484.626L507.66 481.674Z" fill="#D100AB"/>
</g>
<g filter="url(#filter4_d_954_1511)">
<path d="M168.078 276.887C168.078 277.668 167.424 278.059 166.115 278.059C162.873 278.059 160.568 276.77 159.201 274.191C158.693 273.273 158.439 272.18 158.439 270.91C158.439 269.641 158.625 268.381 158.996 267.131C159.367 265.861 159.865 264.611 160.49 263.381C161.115 262.15 161.838 260.959 162.658 259.807C163.478 258.654 164.347 257.59 165.265 256.613C167.199 254.543 169.035 253.088 170.773 252.248C171.242 252.033 171.662 251.926 172.033 251.926C172.424 251.926 172.746 251.936 173 251.955C173.644 252.014 174.123 252.258 174.435 252.688C173.244 255.207 172.267 257.512 171.506 259.602C174.982 256.184 179.025 253.85 183.635 252.6C185.138 252.189 186.447 251.984 187.56 251.984C188.693 251.984 189.347 252.199 189.523 252.629C189.699 253.039 189.787 253.42 189.787 253.771C189.787 254.123 189.738 254.602 189.64 255.207C189.543 255.793 189.289 256.613 188.879 257.668C188.469 258.723 188.049 259.787 187.619 260.861C186.525 263.596 185.978 265.461 185.978 266.457C185.978 268.176 186.594 269.035 187.824 269.035C189.933 269.035 192.258 267.648 194.797 264.875C195.539 264.074 196.213 263.215 196.818 262.297C197.697 262.238 198.137 262.6 198.137 263.381C198.137 264.006 197.736 265.041 196.935 266.486C196.135 267.912 195.363 269.152 194.621 270.207C193.898 271.242 193.078 272.258 192.16 273.254C191.242 274.25 190.236 275.148 189.142 275.949C186.76 277.688 184.435 278.557 182.17 278.557C179.904 278.557 178.185 277.961 177.013 276.77C175.842 275.578 175.256 273.84 175.256 271.555C175.256 268.176 177.013 264.133 180.529 259.426C181.603 258 182.072 257.287 181.935 257.287C180.451 257.287 178.361 258.225 175.666 260.1C172.99 261.975 170.949 263.967 169.543 266.076C168.644 269.729 168.156 273.332 168.078 276.887ZM216.213 245.686C215.412 246.076 214.543 246.379 213.605 246.594C212.687 246.789 211.887 246.887 211.203 246.887C210.519 246.887 209.904 246.809 209.357 246.652C208.81 246.477 208.322 246.232 207.892 245.92C206.955 245.236 206.486 244.416 206.486 243.459C206.486 242.502 206.652 241.691 206.984 241.027C207.336 240.363 207.834 239.797 208.478 239.328C209.865 238.312 211.525 237.805 213.459 237.805C215.412 237.805 216.828 238.205 217.707 239.006C218.605 239.807 219.055 240.725 219.055 241.76C219.055 242.795 218.781 243.605 218.234 244.191C217.687 244.777 217.013 245.275 216.213 245.686ZM193.654 274.602C193.244 273.723 193.039 272.648 193.039 271.379C193.039 270.09 193.312 268.732 193.859 267.307C194.426 265.881 195.138 264.465 195.998 263.059C196.877 261.633 197.853 260.266 198.928 258.957C200.002 257.629 201.066 256.457 202.121 255.441C204.445 253.234 206.154 252.131 207.248 252.131C207.717 252.131 208.234 252.336 208.801 252.746C209.387 253.137 209.758 253.43 209.914 253.625C206.965 256.789 205.099 259.846 204.318 262.795C204.064 263.693 203.937 264.572 203.937 265.432C203.937 266.271 204.26 267.033 204.904 267.717C205.549 268.381 206.349 268.713 207.306 268.713C208.263 268.713 209.152 268.537 209.972 268.186C210.812 267.814 211.633 267.336 212.433 266.75C214.015 265.559 215.402 264.074 216.594 262.297C217.472 262.238 217.912 262.6 217.912 263.381C217.912 264.025 217.502 265.041 216.681 266.428C215.881 267.814 215.08 269.016 214.279 270.031C213.478 271.027 212.56 272.014 211.525 272.99C210.51 273.967 209.396 274.836 208.185 275.598C205.471 277.316 202.678 278.176 199.806 278.176C196.779 278.176 194.728 276.984 193.654 274.602ZM239.68 252.629C240.519 251.672 241.486 251.193 242.58 251.193C243.224 251.193 243.771 251.379 244.221 251.75C242.287 254.836 240.295 259.426 238.244 265.52C237.678 267.199 237.111 268.879 236.545 270.559C239.943 270.09 243.224 268.312 246.388 265.227C247.326 264.289 248.127 263.312 248.791 262.297C249.67 262.238 250.109 262.6 250.109 263.381C250.109 263.693 249.875 264.406 249.406 265.52C248.937 266.633 248.137 267.912 247.004 269.357C245.89 270.803 244.64 272.082 243.254 273.195C240.519 275.363 237.453 276.818 234.055 277.561C232.219 282.287 230.217 285.852 228.049 288.254C225.412 291.184 222.258 292.648 218.586 292.648C215.969 292.648 213.674 291.896 211.701 290.393C209.592 288.771 208.537 286.789 208.537 284.445C208.537 283.469 209.006 282.492 209.943 281.516C210.9 280.52 211.906 279.904 212.961 279.67C213.801 280.744 215.549 281.623 218.205 282.307C218.888 282.482 219.543 282.57 220.168 282.57C220.812 282.57 221.506 282.336 222.248 281.867C223.01 281.418 223.762 280.793 224.504 279.992C225.871 278.488 227.316 276.359 228.84 273.605C226.027 276.535 222.922 278 219.523 278C217.453 278 215.744 277.268 214.396 275.803C213.029 274.318 212.346 272.414 212.346 270.09C212.346 267.102 213.517 264.201 215.861 261.389C218.127 258.654 221.096 256.428 224.767 254.709C228.576 252.932 232.512 252.043 236.574 252.043C237.961 252.043 238.996 252.238 239.68 252.629ZM221.779 265.314C221.779 267.58 222.726 268.713 224.621 268.713C227.316 268.713 230.861 265.617 235.256 259.426C235.92 258.508 236.545 257.619 237.131 256.76C237.365 256.33 237.736 255.656 238.244 254.738C233.381 254.855 229.396 255.988 226.291 258.137C223.283 260.188 221.779 262.58 221.779 265.314ZM251.31 278C247.053 278 244.924 275.568 244.924 270.705C244.924 266.584 247.199 261.311 251.75 254.885C255.754 249.24 260.09 244.514 264.758 240.705C267.707 238.303 269.885 237.102 271.291 237.102C272.326 237.102 273.244 237.58 274.045 238.537C274.924 239.553 275.363 240.598 275.363 241.672C275.363 242.727 275.129 243.684 274.66 244.543C274.211 245.383 273.596 246.232 272.814 247.092C272.053 247.951 271.144 248.801 270.09 249.641C269.055 250.48 267.951 251.271 266.779 252.014C264.357 253.576 261.984 254.748 259.66 255.529C258.82 257.385 257.99 259.445 257.17 261.711C261.115 258.156 265.715 255.676 270.969 254.27C272.648 253.82 274.064 253.596 275.217 253.596C276.369 253.596 277.062 253.801 277.297 254.211C277.531 254.602 277.57 255.129 277.414 255.793C277.277 256.457 277.004 257.209 276.594 258.049C276.183 258.889 275.763 259.758 275.334 260.656C274.26 262.98 273.722 264.641 273.722 265.637C273.722 267.688 274.377 268.713 275.685 268.713C277.131 268.713 278.742 268.059 280.519 266.75C282.101 265.559 283.488 264.074 284.68 262.297C285.558 262.238 285.998 262.6 285.998 263.381C285.998 264.006 285.588 265.021 284.767 266.428C283.967 267.814 283.176 269.016 282.394 270.031C281.613 271.047 280.734 272.053 279.758 273.049C278.781 274.025 277.736 274.895 276.623 275.656C274.123 277.395 271.721 278.264 269.416 278.264C267.111 278.264 265.471 277.678 264.494 276.506C263.537 275.314 263.058 273.615 263.058 271.408C263.058 268.576 264.767 265.031 268.185 260.773C269.24 259.465 269.699 258.811 269.562 258.811C268 258.811 265.627 259.787 262.443 261.74C259.064 263.811 256.681 265.842 255.295 267.834C254.494 270.979 254.015 273.977 253.859 276.828C253.859 277.609 253.01 278 251.31 278ZM261.301 252.131C263.82 250.979 265.988 249.602 267.805 248C269.621 246.359 270.529 244.943 270.529 243.752C270.529 243.166 270.412 242.629 270.178 242.141C269.963 241.633 269.67 241.379 269.299 241.379C268.947 241.379 268.488 241.643 267.922 242.17C267.355 242.697 266.721 243.43 266.017 244.367C264.533 246.32 262.961 248.908 261.301 252.131ZM290.92 278.029C284.689 278.029 281.574 275.383 281.574 270.09C281.574 266.398 284.025 261.281 288.928 254.738C288.439 254.582 287.99 254.445 287.58 254.328C287.17 254.211 286.838 254.113 286.584 254.035C286.33 253.938 286.174 253.791 286.115 253.596C286.056 253.4 286.037 253.176 286.056 252.922C286.135 252.336 286.271 251.867 286.467 251.516L290.89 252.248C294.347 248.049 297.326 245.168 299.826 243.605C300.588 243.137 301.125 242.902 301.437 242.902C301.75 242.902 302.023 242.951 302.258 243.049C302.512 243.127 302.765 243.234 303.019 243.371C303.566 243.664 303.996 244.006 304.308 244.396C301.672 246.975 299.201 249.934 296.896 253.273C301.369 254.055 304.103 254.475 305.099 254.533C304.572 256.623 303.967 257.668 303.283 257.668C301.603 257.668 298.84 257.209 294.992 256.291C293.058 259.514 292.092 262.189 292.092 264.318C292.092 267.248 294.064 268.713 298.01 268.713C302.424 268.713 306.056 266.574 308.908 262.297C309.787 262.238 310.226 262.6 310.226 263.381C310.226 264.064 309.816 265.09 308.996 266.457C308.176 267.805 307.355 268.977 306.535 269.973C305.715 270.969 304.767 271.955 303.693 272.932C302.619 273.889 301.428 274.748 300.119 275.51C297.267 277.189 294.201 278.029 290.92 278.029ZM314.68 276.828C314.68 277.609 314.025 278 312.717 278C310.803 278 309.123 277.414 307.678 276.242C305.92 274.836 305.041 272.893 305.041 270.412C305.041 267.092 306.447 263.508 309.26 259.66C311.857 256.086 314.562 253.615 317.375 252.248C317.844 252.033 318.263 251.926 318.635 251.926C319.025 251.926 319.347 251.936 319.601 251.955C320.246 252.014 320.724 252.258 321.037 252.688C319.865 255.109 318.84 257.551 317.961 260.012C320.305 257.844 323.166 255.979 326.545 254.416C330.06 252.795 333.234 251.984 336.066 251.984C337.355 251.984 338 252.766 338 254.328C338 255.402 337.726 256.818 337.18 258.576C340.441 255.588 344.045 253.566 347.99 252.512C349.318 252.16 350.519 251.984 351.594 251.984C352.668 251.984 353.4 252.141 353.791 252.453C354.181 252.746 354.406 253.156 354.465 253.684C354.523 254.191 354.445 254.797 354.23 255.5C354.035 256.184 353.762 256.916 353.41 257.697C353.058 258.479 352.668 259.279 352.238 260.1C351.808 260.92 351.408 261.711 351.037 262.473C350.158 264.309 349.719 265.656 349.719 266.516C349.719 268.117 350.588 268.918 352.326 268.918C354.396 268.918 356.428 267.521 358.42 264.729C359.006 263.928 359.572 263.117 360.119 262.297C360.627 262.258 360.969 262.355 361.144 262.59C361.34 262.824 361.437 263.088 361.437 263.381C361.437 263.654 361.31 264.094 361.056 264.699C360.822 265.305 360.461 266.086 359.972 267.043C359.504 268 358.937 268.986 358.273 270.002C357.609 271.018 356.847 272.023 355.988 273.02C355.129 273.996 354.162 274.875 353.088 275.656C350.685 277.355 348.039 278.205 345.148 278.205C342.043 278.205 339.953 277.082 338.879 274.836C338.527 274.113 338.351 273.225 338.351 272.17C338.351 271.115 338.556 269.992 338.967 268.801C339.396 267.609 339.914 266.467 340.519 265.373C341.125 264.26 341.76 263.225 342.424 262.268C343.107 261.311 343.703 260.48 344.211 259.777C344.719 259.074 345.08 258.518 345.295 258.107C345.51 257.697 345.461 257.492 345.148 257.492C343.781 257.492 342.033 258.332 339.904 260.012C337.814 261.613 336.076 263.43 334.689 265.461C332.678 270.754 331.672 274.279 331.672 276.037C331.672 276.389 331.681 276.691 331.701 276.945C331.74 277.199 331.691 277.404 331.555 277.561C331.418 277.697 331.232 277.805 330.998 277.883C330.06 278.254 328.957 278.303 327.687 278.029C326.437 277.756 325.471 277.375 324.787 276.887C323.244 275.793 322.472 274.006 322.472 271.525C322.472 268.146 324.299 264.113 327.951 259.426C329.045 258 329.533 257.287 329.416 257.287C327.912 257.287 325.685 258.234 322.736 260.129C319.67 262.102 317.463 264.104 316.115 266.135C315.236 269.65 314.758 273.215 314.68 276.828ZM373.713 273.312C371.037 276.438 367.775 278 363.928 278C361.486 278 359.533 277.268 358.068 275.803C356.623 274.357 355.9 272.453 355.9 270.09C355.9 267.102 357.072 264.201 359.416 261.389C361.681 258.654 364.65 256.428 368.322 254.709C372.131 252.932 376.066 252.043 380.129 252.043C381.672 252.043 382.775 252.287 383.439 252.775C383.967 252.15 384.435 251.789 384.846 251.691C385.275 251.574 385.607 251.516 385.842 251.516C386.584 251.516 387.375 251.623 388.215 251.838C388.137 252.092 387.971 252.531 387.717 253.156C387.463 253.762 387.18 254.484 386.867 255.324C386.555 256.164 386.222 257.082 385.871 258.078C384.601 261.633 383.967 264.299 383.967 266.076C383.967 267.834 384.523 268.713 385.637 268.713C387.082 268.713 388.693 268.059 390.471 266.75C392.053 265.559 393.439 264.074 394.631 262.297C395.51 262.238 395.949 262.6 395.949 263.381C395.949 264.045 395.539 265.061 394.719 266.428C393.918 267.795 393.137 268.977 392.375 269.973C391.613 270.969 390.763 271.945 389.826 272.902C388.888 273.859 387.892 274.719 386.838 275.48C384.474 277.16 382.17 278 379.924 278C377.072 278 375.158 277.141 374.181 275.422C373.869 274.895 373.713 274.436 373.713 274.045C373.713 273.635 373.713 273.391 373.713 273.312ZM365.334 265.314C365.334 267.58 366.281 268.713 368.176 268.713C370.265 268.713 372.726 267.023 375.558 263.645C377.062 261.848 378.371 260.129 379.484 258.488C380.617 256.848 381.476 255.598 382.062 254.738C377.18 254.777 373.127 255.891 369.904 258.078C366.857 260.148 365.334 262.561 365.334 265.314ZM404.972 260.422C402.629 260.305 400.637 260.061 398.996 259.689C396.984 263.186 395.012 266.301 393.078 269.035C392.824 269.445 392.248 269.553 391.349 269.357C389.748 269.006 388.83 268.596 388.596 268.127C392.072 265.686 394.513 262.551 395.92 258.723C393.869 257.785 392.844 256.457 392.844 254.738C392.844 253.684 393.537 252.336 394.924 250.695C396.232 249.094 397.199 248.293 397.824 248.293C399.738 248.293 401.193 248.781 402.189 249.758C402.58 250.129 402.775 250.627 402.775 251.252C402.775 251.857 402.443 252.883 401.779 254.328C404.787 255.793 408.576 256.652 413.146 256.906C413.01 258.254 412.443 259.348 411.447 260.188C411.174 260.441 410.9 260.568 410.627 260.568C409.24 261.818 408.263 263.176 407.697 264.641C407.521 265.109 407.433 265.559 407.433 265.988C407.433 267.805 408.517 268.713 410.685 268.713C412.15 268.713 413.771 268.059 415.549 266.75C417.131 265.559 418.517 264.074 419.709 262.297C420.588 262.238 421.027 262.6 421.027 263.381C421.027 264.045 420.617 265.061 419.797 266.428C418.996 267.795 418.215 268.977 417.453 269.973C416.691 270.969 415.842 271.945 414.904 272.902C413.967 273.859 412.971 274.719 411.916 275.48C409.553 277.16 407.238 278 404.972 278C401.125 278 398.547 276.809 397.238 274.426C396.789 273.625 396.564 272.697 396.564 271.643C396.564 270.568 396.779 269.514 397.209 268.479C397.658 267.443 398.263 266.438 399.025 265.461C400.588 263.43 402.57 261.75 404.972 260.422ZM427.121 266.486C428.254 268.518 430.822 269.533 434.826 269.533C437.326 269.533 439.68 268.928 441.887 267.717C444.113 266.486 446.017 264.68 447.599 262.297C448.478 262.238 448.918 262.6 448.918 263.381C448.918 264.26 448.39 265.529 447.336 267.189C446.301 268.83 445.324 270.158 444.406 271.174C443.508 272.189 442.492 273.137 441.359 274.016C440.246 274.875 439.045 275.617 437.756 276.242C434.963 277.609 432.023 278.293 428.937 278.293C422.726 278.293 418.693 276.574 416.838 273.137C416.174 271.887 415.842 270.461 415.842 268.859C415.842 267.238 416.115 265.754 416.662 264.406C417.228 263.059 418 261.779 418.976 260.568C419.953 259.338 421.115 258.205 422.463 257.17C423.81 256.135 425.275 255.246 426.857 254.504C430.217 252.883 433.644 252.072 437.14 252.072C439.66 252.072 441.388 252.863 442.326 254.445C442.658 254.992 442.824 255.725 442.824 256.643C442.824 257.541 442.59 258.43 442.121 259.309C441.672 260.188 441.056 260.988 440.275 261.711C439.494 262.414 438.586 263.039 437.551 263.586C436.515 264.113 435.412 264.572 434.24 264.963C432.17 265.666 429.797 266.174 427.121 266.486ZM426.711 263.762C429.211 263.469 431.359 262.775 433.156 261.682C435.051 260.51 435.998 259.143 435.998 257.58C435.998 255.998 435.275 255.207 433.83 255.207C431.955 255.207 430.324 256.105 428.937 257.902C427.609 259.621 426.867 261.574 426.711 263.762Z" fill="#FFE76F"/>
</g>
<g filter="url(#filter5_d_954_1511)">
<path d="M131.227 86.5927C121.029 89.7081 113.151 94.8005 107.595 101.87C102.104 108.879 99.358 117.596 99.358 128.021C99.358 131.975 99.8156 135.09 100.731 137.367C100.927 138.026 101.254 138.685 101.711 139.344C101.973 139.763 102.104 140.213 102.104 140.692C95.3049 140.692 90.1079 139.434 86.5125 136.918C82.5902 134.162 80.629 129.848 80.629 123.977C80.629 120.143 81.4789 116.248 83.1785 112.294C84.8782 108.34 87.2969 104.506 90.4348 100.792C93.5072 97.1969 97.07 93.8419 101.123 90.7265C105.241 87.5513 109.687 84.7954 114.459 82.4589C119.231 80.0624 124.166 78.2352 129.265 76.9771C134.43 75.659 139.529 75 144.562 75C149.531 75 154.597 75.8687 159.761 77.6061L155.152 174.571L199.376 77.6061H228.303L207.221 213.034H178.294C178.294 213.034 207.187 139.703 191.139 130.357C175.092 121.011 153.387 213.034 153.387 213.034H125.833C125.833 213.034 145.249 139.692 129.854 129.998C114.459 120.304 96.3182 213.034 96.3182 213.034H80.2368L131.227 86.5927Z" fill="#FFF3FE"/>
<path d="M446.531 213.417C440.461 213.417 435.522 212.329 431.717 210.155C428.002 207.98 425.284 205.036 423.562 201.321C421.841 197.606 420.98 193.438 420.98 188.817V144.238H449.657V184.876C449.657 186.959 450.246 188.59 451.424 189.768C452.693 190.856 454.188 191.399 455.909 191.399C457.721 191.399 459.579 190.856 461.482 189.768L462.977 208.66C460.983 210.2 458.401 211.378 455.23 212.194C452.058 213.009 449.159 213.417 446.531 213.417Z" fill="#FFF3FE"/>
<path d="M322.691 176.585C322.691 169.971 324.141 164.172 327.04 159.188C330.03 154.205 334.108 150.31 339.272 147.501C344.436 144.692 350.235 143.287 356.668 143.287C361.199 143.287 365.548 144.511 369.716 146.957C373.884 149.313 377.055 153.164 379.23 158.51V144.238H407.772V196.429C407.772 210.926 404.192 221.617 397.035 228.503C389.877 235.389 379.728 238.832 366.59 238.832C363.147 238.832 359.931 238.606 356.941 238.153C353.951 237.7 351.595 237.156 349.873 236.521L352.048 216.814C353.679 217.177 355.445 217.45 357.348 217.631C359.251 217.903 361.108 218.038 362.92 218.038C368.991 218.038 373.341 216.769 375.968 214.232C378.686 211.695 380.045 207.799 380.045 202.544V196.156C377.508 201.14 374.382 204.809 370.667 207.165C366.952 209.521 362.286 210.699 356.668 210.699C350.235 210.699 344.436 209.249 339.272 206.35C334.107 203.36 330.03 199.328 327.04 194.254C324.141 189.089 322.691 183.199 322.691 176.585ZM357.056 164.897C346.568 169.904 340.729 179.542 344.014 186.425C347.299 193.308 358.465 194.829 368.953 189.823C379.442 184.817 385.281 175.179 381.995 168.296C378.71 161.413 367.544 159.891 357.056 164.897Z" fill="#FFF3FE"/>
<path d="M228.191 177.944C228.191 171.058 229.64 165.033 232.54 159.868C235.53 154.704 239.563 150.672 244.637 147.772C249.71 144.783 255.373 143.287 261.625 143.287C266.065 143.287 270.369 144.511 274.537 146.957C278.705 149.403 281.921 153.435 284.186 159.053V144.238H312.456V212.33H283.915V199.69C281.74 204.13 278.841 207.528 275.217 209.884C271.592 212.24 267.061 213.417 261.625 213.417C255.373 213.417 249.711 211.922 244.637 208.932C239.563 205.851 235.53 201.638 232.54 196.292C229.641 190.946 228.191 184.83 228.191 177.944ZM262.202 166.717C251.714 171.723 245.874 181.36 249.159 188.243C252.444 195.126 263.61 196.648 274.099 191.642C274.397 191.499 274.692 191.352 274.983 191.202C276.819 190.558 278.48 189.494 279.968 188.008C286.611 182.768 289.748 175.574 287.141 170.114C283.856 163.231 272.69 161.711 262.202 166.717Z" fill="#FFF3FE"/>
<path d="M440.465 75.3695C440.465 75.3695 443.096 91.0067 450.63 97.1792C458.171 103.357 475.439 103.998 475.439 103.998C475.439 103.998 459.926 105.257 452.768 110.703C444.748 116.804 441.193 132.744 441.193 132.744C441.193 132.744 437.234 116.884 429.061 110.955C421.767 105.663 406.226 104.736 406.226 104.736C406.226 104.736 423.473 103.727 430.855 97.39C438.231 91.0586 440.465 75.3695 440.465 75.3695Z" fill="#FFF3FE"/>
</g>
<path d="M502.286 213.088C494.675 213.088 488.106 211.593 482.578 208.603C477.051 205.613 472.793 201.535 469.803 196.371C466.813 191.116 465.318 185.09 465.318 178.295C465.318 171.59 466.858 165.564 469.939 160.219C473.019 154.873 477.323 150.66 482.85 147.579C488.468 144.498 494.946 142.958 502.286 142.958C511.075 142.958 518.006 144.77 523.08 148.394L520.09 166.878C517.825 165.882 515.696 165.202 513.702 164.84C511.709 164.387 509.806 164.16 507.994 164.16C503.554 164.16 497.229 164.39 492.336 166.878C480.909 172.689 481.434 178.295 481.434 178.295C481.434 178.295 480.303 189.711 495.876 192.022C502.286 192.973 503.826 192.022 507.45 192.022C511.075 192.022 515.333 191.252 520.226 189.711L522.808 208.739C519.818 210.188 516.692 211.276 513.43 212.001C510.259 212.725 506.544 213.088 502.286 213.088Z" fill="#FFF3FE"/>
<defs>
<filter id="filter0_d_954_1511" x="143.141" y="296.217" width="316.761" height="312.029" filterUnits="userSpaceOnUse" color-interpolation-filters="sRGB">
<feFlood flood-opacity="0" result="BackgroundImageFix"/>
<feColorMatrix in="SourceAlpha" type="matrix" values="0 0 0 0 0 0 0 0 0 0 0 0 0 0 0 0 0 0 127 0" result="hardAlpha"/>
<feOffset dy="4"/>
<feGaussianBlur stdDeviation="2"/>
<feComposite in2="hardAlpha" operator="out"/>
<feColorMatrix type="matrix" values="0 0 0 0 0 0 0 0 0 0 0 0 0 0 0 0 0 0 0.25 0"/>
<feBlend mode="normal" in2="BackgroundImageFix" result="effect1_dropShadow_954_1511"/>
<feBlend mode="normal" in="SourceGraphic" in2="effect1_dropShadow_954_1511" result="shape"/>
</filter>
<filter id="filter1_d_954_1511" x="160.151" y="326.758" width="280.523" height="281.488" filterUnits="userSpaceOnUse" color-interpolation-filters="sRGB">
<feFlood flood-opacity="0" result="BackgroundImageFix"/>
<feColorMatrix in="SourceAlpha" type="matrix" values="0 0 0 0 0 0 0 0 0 0 0 0 0 0 0 0 0 0 127 0" result="hardAlpha"/>
<feOffset dy="4"/>
<feGaussianBlur stdDeviation="2"/>
<feComposite in2="hardAlpha" operator="out"/>
<feColorMatrix type="matrix" values="0 0 0 0 0 0 0 0 0 0 0 0 0 0 0 0 0 0 0.25 0"/>
<feBlend mode="normal" in2="BackgroundImageFix" result="effect1_dropShadow_954_1511"/>
<feBlend mode="normal" in="SourceGraphic" in2="effect1_dropShadow_954_1511" result="shape"/>
</filter>
<filter id="filter2_d_954_1511" x="143.141" y="296.217" width="316.761" height="312.029" filterUnits="userSpaceOnUse" color-interpolation-filters="sRGB">
<feFlood flood-opacity="0" result="BackgroundImageFix"/>
<feColorMatrix in="SourceAlpha" type="matrix" values="0 0 0 0 0 0 0 0 0 0 0 0 0 0 0 0 0 0 127 0" result="hardAlpha"/>
<feOffset dy="4"/>
<feGaussianBlur stdDeviation="2"/>
<feComposite in2="hardAlpha" operator="out"/>
<feColorMatrix type="matrix" values="0 0 0 0 0 0 0 0 0 0 0 0 0 0 0 0 0 0 0.25 0"/>
<feBlend mode="normal" in2="BackgroundImageFix" result="effect1_dropShadow_954_1511"/>
<feBlend mode="normal" in="SourceGraphic" in2="effect1_dropShadow_954_1511" result="shape"/>
</filter>
<filter id="filter3_d_954_1511" x="160.151" y="326.758" width="280.523" height="281.488" filterUnits="userSpaceOnUse" color-interpolation-filters="sRGB">
<feFlood flood-opacity="0" result="BackgroundImageFix"/>
<feColorMatrix in="SourceAlpha" type="matrix" values="0 0 0 0 0 0 0 0 0 0 0 0 0 0 0 0 0 0 127 0" result="hardAlpha"/>
<feOffset dy="4"/>
<feGaussianBlur stdDeviation="2"/>
<feComposite in2="hardAlpha" operator="out"/>
<feColorMatrix type="matrix" values="0 0 0 0 0 0 0 0 0 0 0 0 0 0 0 0 0 0 0.25 0"/>
<feBlend mode="normal" in2="BackgroundImageFix" result="effect1_dropShadow_954_1511"/>
<feBlend mode="normal" in="SourceGraphic" in2="effect1_dropShadow_954_1511" result="shape"/>
</filter>
<filter id="filter4_d_954_1511" x="154.439" y="237.102" width="298.479" height="63.5469" filterUnits="userSpaceOnUse" color-interpolation-filters="sRGB">
<feFlood flood-opacity="0" result="BackgroundImageFix"/>
<feColorMatrix in="SourceAlpha" type="matrix" values="0 0 0 0 0 0 0 0 0 0 0 0 0 0 0 0 0 0 127 0" result="hardAlpha"/>
<feOffset dy="4"/>
<feGaussianBlur stdDeviation="2"/>
<feComposite in2="hardAlpha" operator="out"/>
<feColorMatrix type="matrix" values="0 0 0 0 0 0 0 0 0 0 0 0 0 0 0 0 0 0 0.25 0"/>
<feBlend mode="normal" in2="BackgroundImageFix" result="effect1_dropShadow_954_1511"/>
<feBlend mode="normal" in="SourceGraphic" in2="effect1_dropShadow_954_1511" result="shape"/>
</filter>
<filter id="filter5_d_954_1511" x="76.2368" y="75" width="403.202" height="171.832" filterUnits="userSpaceOnUse" color-interpolation-filters="sRGB">
<feFlood flood-opacity="0" result="BackgroundImageFix"/>
<feColorMatrix in="SourceAlpha" type="matrix" values="0 0 0 0 0 0 0 0 0 0 0 0 0 0 0 0 0 0 127 0" result="hardAlpha"/>
<feOffset dy="4"/>
<feGaussianBlur stdDeviation="2"/>
<feComposite in2="hardAlpha" operator="out"/>
<feColorMatrix type="matrix" values="0 0 0 0 0 0 0 0 0 0 0 0 0 0 0 0 0 0 0.25 0"/>
<feBlend mode="normal" in2="BackgroundImageFix" result="effect1_dropShadow_954_1511"/>
<feBlend mode="normal" in="SourceGraphic" in2="effect1_dropShadow_954_1511" result="shape"/>
</filter>
<linearGradient id="paint0_linear_954_1511" x1="299.93" y1="434.027" x2="299.93" y2="600.246" gradientUnits="userSpaceOnUse">
<stop offset="0.625" stop-color="#092061"/>
<stop offset="1" stop-color="#125A12"/>
</linearGradient>
<linearGradient id="paint1_linear_954_1511" x1="299.93" y1="434.027" x2="299.93" y2="600.246" gradientUnits="userSpaceOnUse">
<stop offset="0.625" stop-color="#092061"/>
<stop offset="1" stop-color="#125A12"/>
</linearGradient>
</defs>
</svg>
