<svg width="909" height="633" viewBox="0 0 909 633" fill="none" xmlns="http://www.w3.org/2000/svg">
<g clip-path="url(#clip0_195_2)">
<rect width="633" height="909" transform="matrix(0 -1 1 0 0 633)" fill="#B1C3D6"/>
<path d="M594.835 332.079C594.662 332.643 594.619 333.249 594.705 333.9C594.792 334.55 594.835 335.178 594.835 335.785C594.662 335.785 594.337 335.85 593.86 335.98C593.427 336.067 593.015 336.132 592.625 336.175C592.451 336.175 592.256 336.175 592.039 336.175C591.823 336.132 591.649 336.132 591.519 336.175L590.284 336.435H586.643C585.732 336.479 584.909 336.501 584.172 336.501C583.478 336.457 582.676 336.435 581.766 336.435C581.593 336.435 581.332 336.457 580.986 336.501C580.682 336.544 580.465 336.544 580.335 336.501C580.335 336.717 580.314 336.891 580.27 337.021C580.227 337.151 580.205 337.324 580.205 337.541C580.249 337.671 580.27 337.996 580.27 338.516C580.314 339.036 580.335 339.622 580.335 340.272C580.379 340.879 580.4 341.442 580.4 341.962C580.444 342.483 580.465 342.808 580.465 342.938V345.864C580.465 346.21 580.465 346.492 580.465 346.709C580.509 346.926 580.574 347.229 580.661 347.619H584.432C585.125 347.619 585.776 347.641 586.382 347.684C586.989 347.728 587.661 347.749 588.398 347.749C588.788 347.749 589.243 347.771 589.764 347.814C590.327 347.858 590.761 347.836 591.064 347.749C591.107 348.139 591.151 348.551 591.194 348.985C591.237 349.418 591.259 349.808 591.259 350.155V351.195C591.086 351.195 590.761 351.217 590.284 351.26C589.807 351.304 589.373 351.347 588.983 351.391H586.252C585.385 351.521 584.584 351.586 583.847 351.586C583.11 351.586 582.286 351.586 581.376 351.586C581.202 351.586 580.986 351.607 580.726 351.651C580.465 351.694 580.27 351.694 580.14 351.651V354.056C580.14 354.663 580.14 355.292 580.14 355.942C580.184 356.592 580.27 357.156 580.4 357.633C580.4 358.413 580.4 359.15 580.4 359.843C580.444 360.494 580.465 361.1 580.465 361.664V362.769C580.552 362.726 580.812 362.748 581.246 362.834C581.723 362.921 582.286 363.008 582.936 363.094C583.587 363.181 584.128 363.246 584.562 363.29C585.039 363.333 585.472 363.42 585.862 363.55C586.079 363.636 586.534 363.701 587.228 363.745C587.965 363.745 588.441 363.745 588.658 363.745C589.742 363.875 590.804 363.961 591.844 364.005C592.885 364.048 593.947 364.113 595.03 364.2H597.371C597.545 364.2 597.74 364.178 597.956 364.135C598.173 364.048 598.325 364.005 598.412 364.005C598.628 364.785 598.737 365.544 598.737 366.281C598.78 367.017 598.802 367.754 598.802 368.491C598.455 368.708 598.021 368.816 597.501 368.816C596.981 368.816 596.483 368.838 596.006 368.881C595.702 368.881 595.377 368.86 595.03 368.816C594.684 368.773 594.337 368.751 593.99 368.751C593.123 368.795 592.083 368.795 590.869 368.751C589.699 368.708 588.68 368.73 587.813 368.816H586.838C586.361 368.73 585.689 368.665 584.822 368.621C583.998 368.578 583.37 368.556 582.936 368.556C582.459 368.513 581.701 368.513 580.661 368.556C579.62 368.643 577.886 368.708 575.459 368.751C575.372 368.751 575.069 368.751 574.548 368.751C574.072 368.751 573.53 368.751 572.923 368.751C572.359 368.795 571.818 368.816 571.297 368.816C570.821 368.86 570.539 368.881 570.452 368.881C570.452 367.971 570.387 367.082 570.257 366.216C570.17 365.349 570.127 364.547 570.127 363.81C570.127 363.376 570.105 362.878 570.062 362.314C570.019 361.751 570.04 361.274 570.127 360.884C570.214 359.497 570.235 358.131 570.192 356.787C570.192 355.444 570.192 354.078 570.192 352.691C570.192 352.388 570.17 351.846 570.127 351.065C570.084 350.285 570.084 349.548 570.127 348.855L569.997 346.839C569.954 346.536 569.975 345.994 570.062 345.213C570.192 344.39 570.235 343.675 570.192 343.068C570.149 342.071 570.105 341.204 570.062 340.467C570.019 339.687 569.975 338.776 569.932 337.736C569.889 336.826 569.889 335.937 569.932 335.07C570.019 334.16 570.062 333.293 570.062 332.469C570.062 332.252 570.062 332.079 570.062 331.949C570.105 331.776 570.235 331.602 570.452 331.429L573.768 331.559C574.418 331.602 575.155 331.602 575.979 331.559C576.846 331.515 577.605 331.515 578.255 331.559C578.428 331.559 578.58 331.559 578.71 331.559C578.883 331.515 579.057 331.494 579.23 331.494C579.36 331.494 579.642 331.494 580.075 331.494C580.509 331.494 580.964 331.494 581.441 331.494C581.918 331.494 582.351 331.494 582.741 331.494C583.131 331.494 583.37 331.515 583.456 331.559C583.543 331.602 583.803 331.646 584.237 331.689C584.67 331.732 584.995 331.754 585.212 331.754C585.342 331.754 585.537 331.754 585.797 331.754C586.057 331.711 586.317 331.689 586.578 331.689C586.881 331.689 587.163 331.689 587.423 331.689C587.683 331.689 587.878 331.689 588.008 331.689C588.485 331.776 588.918 331.819 589.308 331.819C589.742 331.776 590.197 331.776 590.674 331.819C590.717 331.819 590.934 331.841 591.324 331.884C591.758 331.884 592.234 331.906 592.755 331.949C593.275 331.992 593.73 332.036 594.12 332.079C594.554 332.079 594.792 332.079 594.835 332.079Z" fill="#8925B8"/>
<path d="M541.47 351.716C541.426 351.282 541.426 350.87 541.47 350.48C541.556 350.09 541.6 349.7 541.6 349.31C541.6 348.616 541.578 347.966 541.535 347.359C541.535 346.709 541.535 346.037 541.535 345.344V342.287C541.535 342.071 541.513 341.854 541.47 341.637C541.47 341.377 541.448 341.139 541.405 340.922V334.875C541.448 334.355 541.448 333.726 541.405 332.989C541.405 332.209 541.405 331.711 541.405 331.494C541.405 331.364 541.383 331.234 541.34 331.104C541.296 330.974 541.296 330.865 541.34 330.779C541.556 330.779 541.773 330.757 541.99 330.714C542.25 330.67 542.575 330.649 542.965 330.649C543.312 330.605 543.659 330.562 544.005 330.519C544.352 330.475 544.742 330.453 545.176 330.453H548.102C548.449 330.453 548.752 330.475 549.012 330.519C549.272 330.519 549.619 330.562 550.052 330.649C550.096 330.692 550.139 330.714 550.183 330.714C550.226 330.757 550.356 330.779 550.573 330.779C550.833 330.692 551.201 330.67 551.678 330.714C552.198 330.757 552.718 330.8 553.239 330.844C553.585 330.887 553.91 330.974 554.214 331.104C554.517 331.234 554.777 331.299 554.994 331.299C555.081 331.299 555.298 331.385 555.644 331.559C555.991 331.689 556.36 331.862 556.75 332.079C557.14 332.252 557.487 332.426 557.79 332.599C558.137 332.729 558.375 332.816 558.505 332.859C559.069 333.076 559.589 333.358 560.066 333.705C560.586 334.008 560.976 334.355 561.236 334.745C561.626 335.005 561.908 335.352 562.082 335.785C562.255 336.175 562.472 336.544 562.732 336.891C562.862 337.064 562.948 337.281 562.992 337.541C563.035 337.801 563.144 338.039 563.317 338.256C563.534 338.56 563.685 339.015 563.772 339.622C563.902 340.185 563.967 340.792 563.967 341.442C564.011 342.092 564.011 342.764 563.967 343.458C563.924 344.108 563.88 344.693 563.837 345.213C563.75 345.647 563.664 346.059 563.577 346.449C563.49 346.796 563.404 347.207 563.317 347.684C563.274 347.901 563.165 348.139 562.992 348.4C562.862 348.66 562.753 348.898 562.667 349.115C562.32 349.938 561.756 350.74 560.976 351.521L560.391 352.171C560.218 352.257 560.066 352.366 559.936 352.496C559.806 352.626 559.654 352.756 559.481 352.886C559.264 353.103 559.004 353.276 558.7 353.406C558.44 353.536 558.202 353.71 557.985 353.926C557.378 353.926 556.858 354.035 556.425 354.252C556.035 354.468 555.579 354.49 555.059 354.317C554.626 354.317 554.236 354.382 553.889 354.512C553.542 354.598 553.195 354.642 552.848 354.642H552.458C552.458 354.858 552.697 355.227 553.174 355.747C553.65 356.267 553.997 356.744 554.214 357.177C554.561 357.524 554.864 357.849 555.124 358.153C555.428 358.413 555.753 358.738 556.1 359.128C556.663 359.648 557.075 360.082 557.335 360.429C557.595 360.732 558.007 361.144 558.57 361.664C558.83 361.881 559.134 362.314 559.481 362.964C559.871 363.571 560.196 363.983 560.456 364.2C560.716 364.59 560.868 364.85 560.911 364.98C560.998 365.11 561.128 365.262 561.301 365.435C561.648 365.912 561.93 366.346 562.147 366.736C562.363 367.082 562.602 367.429 562.862 367.776C562.645 368.166 562.342 368.556 561.952 368.946C561.561 369.38 561.063 369.77 560.456 370.117C560.369 369.987 560.239 369.857 560.066 369.727C559.892 369.64 559.762 369.51 559.676 369.337C559.589 369.25 559.286 368.99 558.765 368.556C558.289 368.123 557.877 367.711 557.53 367.321C557.313 367.017 556.945 366.627 556.425 366.151C555.948 365.63 555.406 365.11 554.799 364.59C554.192 364.07 553.65 363.55 553.174 363.029C552.697 362.466 552.328 362.032 552.068 361.729C551.938 361.599 551.721 361.404 551.418 361.144C551.115 360.84 550.789 360.559 550.443 360.299C550.096 359.995 549.771 359.713 549.467 359.453C549.164 359.15 548.947 358.933 548.817 358.803C548.73 358.89 548.665 358.976 548.622 359.063C548.622 359.106 548.6 359.171 548.557 359.258C548.514 359.345 548.492 359.432 548.492 359.518C548.492 360.385 548.449 361.209 548.362 361.989C548.319 362.726 548.297 363.463 548.297 364.2C548.297 364.59 548.275 365.002 548.232 365.435C548.232 365.825 548.232 366.281 548.232 366.801V369.076C548.145 369.076 547.993 369.076 547.777 369.076C547.56 369.12 547.322 369.163 547.061 369.207C546.585 369.293 546.108 369.315 545.631 369.272C545.198 369.272 544.764 369.272 544.331 369.272C543.767 369.272 543.29 369.272 542.9 369.272C542.553 369.272 542.207 369.185 541.86 369.011C541.643 369.011 541.513 369.011 541.47 369.011C541.426 369.011 541.296 368.903 541.079 368.686L541.144 363.55L541.275 362.704L541.144 360.624L541.275 353.991C541.361 353.428 541.383 353.016 541.34 352.756C541.34 352.496 541.383 352.149 541.47 351.716ZM552.783 344.108C552.87 343.588 552.913 343.068 552.913 342.548C552.913 341.984 552.892 341.486 552.848 341.052C552.848 340.792 552.762 340.619 552.588 340.532C552.458 340.315 552.328 340.163 552.198 340.077C552.112 339.99 552.003 339.903 551.873 339.817C551.57 339.557 551.245 339.361 550.898 339.231C550.551 339.058 550.204 338.928 549.857 338.841C549.727 338.841 549.619 338.928 549.532 339.101C549.489 339.188 549.467 339.253 549.467 339.296V345.929H550.573C550.789 345.712 551.006 345.604 551.223 345.604C551.44 345.56 551.635 345.43 551.808 345.213C552.068 344.997 552.263 344.845 552.393 344.758C552.567 344.628 552.697 344.412 552.783 344.108Z" fill="#8925B8"/>
<path d="M506.82 360.299C507.123 359.432 507.426 358.586 507.73 357.763C508.077 356.896 508.402 356.029 508.705 355.162C508.922 354.512 509.204 353.861 509.55 353.211C509.897 352.561 510.201 351.976 510.461 351.456C510.677 350.719 510.894 350.133 511.111 349.7C511.371 349.223 511.523 348.92 511.566 348.79C511.566 348.703 511.653 348.486 511.826 348.139C512.043 347.793 512.281 347.229 512.541 346.449C512.672 346.059 512.78 345.647 512.867 345.213C512.997 344.78 513.148 344.368 513.322 343.978L514.882 340.207C515.056 339.73 515.164 339.383 515.207 339.166C515.294 338.906 515.359 338.69 515.402 338.516C515.446 338.343 515.489 338.148 515.532 337.931C515.576 337.714 515.706 337.367 515.923 336.891C516.139 336.414 516.313 335.959 516.443 335.525C516.616 335.092 516.811 334.637 517.028 334.16C517.115 333.9 517.201 333.64 517.288 333.379C517.375 333.119 517.461 332.859 517.548 332.599C517.678 332.252 517.787 331.949 517.873 331.689C517.96 331.429 518.047 331.125 518.133 330.779C518.22 330.692 518.285 330.584 518.328 330.453C518.372 330.28 518.458 330.085 518.588 329.868C518.849 329.695 519.065 329.608 519.239 329.608C519.412 329.565 519.585 329.543 519.759 329.543H522.75C522.837 329.717 522.88 329.89 522.88 330.063C522.88 330.193 522.923 330.345 523.01 330.519L523.27 331.494L523.465 332.014L524.18 334.03L525.351 337.346L525.806 338.191C525.893 338.278 525.979 338.473 526.066 338.776C526.153 339.036 526.283 339.383 526.456 339.817C526.673 340.38 526.89 341.03 527.106 341.767C527.366 342.461 527.605 343.154 527.822 343.848C528.125 344.932 528.363 345.734 528.537 346.254C528.754 346.774 528.97 347.316 529.187 347.879C529.317 348.053 529.404 348.248 529.447 348.465C529.491 348.681 529.556 348.898 529.642 349.115L530.488 351.781L531.593 354.121C531.723 354.512 531.853 354.902 531.983 355.292C532.156 355.639 532.351 355.985 532.568 356.332C532.915 357.199 533.197 358.001 533.413 358.738C533.63 359.432 533.912 360.212 534.259 361.079C534.432 361.469 534.606 361.837 534.779 362.184C534.996 362.531 535.169 362.899 535.299 363.29C535.386 363.506 535.473 363.723 535.559 363.94C535.646 364.157 535.733 364.373 535.819 364.59C536.036 364.98 536.209 365.392 536.339 365.825C536.513 366.216 536.708 366.649 536.925 367.126C537.011 367.386 537.12 367.646 537.25 367.906C537.38 368.166 537.467 368.405 537.51 368.621C537.293 368.621 537.076 368.6 536.86 368.556C536.643 368.513 536.448 368.491 536.274 368.491H535.169C534.779 368.491 534.432 368.491 534.129 368.491C533.825 368.535 533.565 368.556 533.348 368.556C533.132 368.036 532.807 367.538 532.373 367.061C531.983 366.541 531.571 365.912 531.138 365.175C531.051 364.958 530.964 364.763 530.878 364.59C530.791 364.417 530.704 364.243 530.618 364.07C530.531 363.81 530.271 363.441 529.837 362.964C529.447 362.488 529.23 362.119 529.187 361.859C528.84 361.469 528.58 361.165 528.407 360.949C528.277 360.689 528.103 360.45 527.887 360.234C527.713 360.234 527.496 360.234 527.236 360.234C526.976 360.19 526.738 360.147 526.521 360.103C526.261 360.06 525.979 360.038 525.676 360.038H524.115C523.899 360.038 523.66 360.06 523.4 360.103C523.183 360.103 522.837 360.125 522.36 360.168C521.883 360.168 521.233 360.19 520.409 360.234C519.586 360.234 518.48 360.234 517.093 360.234H516.638C516.291 360.234 516.009 360.277 515.793 360.364C515.619 360.407 515.359 360.364 515.012 360.234C514.882 360.147 514.557 360.125 514.037 360.168C513.56 360.212 513.235 360.255 513.062 360.299L512.216 360.364L511.891 360.819C511.805 361.079 511.653 361.382 511.436 361.729C511.219 362.076 511.003 362.423 510.786 362.769C510.569 363.116 510.352 363.463 510.136 363.81C509.962 364.157 509.832 364.438 509.746 364.655L509.29 365.825L507.665 368.816C507.578 368.99 507.448 369.076 507.275 369.076C507.101 369.076 506.971 369.12 506.885 369.207H503.568C503.395 369.033 503.308 368.925 503.308 368.881C503.308 368.838 503.395 368.708 503.568 368.491C503.568 368.318 503.633 368.058 503.764 367.711C503.894 367.408 503.959 367.169 503.959 366.996C504.175 366.649 504.349 366.302 504.479 365.955C504.652 365.565 504.826 365.197 504.999 364.85L506.82 360.299ZM520.474 344.173C520.257 344.26 520.106 344.368 520.019 344.498C519.932 344.628 519.846 344.78 519.759 344.953C519.585 345.56 519.347 346.167 519.044 346.774C518.784 347.338 518.523 347.923 518.263 348.53C518.047 348.963 517.83 349.375 517.613 349.765C517.396 350.112 517.201 350.502 517.028 350.935C516.638 351.802 516.248 352.669 515.858 353.536C515.467 354.36 515.034 355.183 514.557 356.007H514.947C515.294 356.007 515.597 356.029 515.858 356.072C516.161 356.115 516.464 356.094 516.768 356.007C517.028 355.92 517.266 355.899 517.483 355.942C517.743 355.985 517.982 356.007 518.198 356.007C518.935 356.007 519.694 356.007 520.474 356.007C521.254 355.964 522.121 355.985 523.075 356.072C523.552 356.115 523.985 356.115 524.375 356.072C524.809 356.029 525.242 356.007 525.676 356.007H526.261C526.218 355.834 526.153 355.704 526.066 355.617C526.023 355.487 525.958 355.357 525.871 355.227C525.698 354.88 525.502 354.577 525.286 354.317C525.112 354.056 524.961 353.731 524.831 353.341L522.555 348.79C522.468 348.573 522.381 348.291 522.295 347.944L520.474 344.173Z" fill="#8925B8"/>
<path d="M471.854 353.926C471.637 353.623 471.398 353.298 471.138 352.951C470.922 352.604 470.661 352.214 470.358 351.781C469.751 350.957 469.209 350.177 468.732 349.44C468.299 348.66 467.974 348.161 467.757 347.944L465.937 345.864C465.806 345.69 465.655 345.452 465.481 345.148C465.308 344.845 465.178 344.628 465.091 344.498C464.874 344.195 464.658 343.891 464.441 343.588C464.268 343.241 464.073 342.938 463.856 342.678C463.596 342.331 463.271 341.897 462.88 341.377C462.534 340.857 462.339 340.597 462.295 340.597L462.36 343.523L461.905 348.79C461.905 349.006 461.883 349.483 461.84 350.22C461.84 350.914 461.818 351.672 461.775 352.496C461.732 353.32 461.688 354.1 461.645 354.837C461.645 355.53 461.645 355.985 461.645 356.202C461.602 357.112 461.537 357.914 461.45 358.608C461.363 359.302 461.342 360.103 461.385 361.014C461.385 361.447 461.342 361.859 461.255 362.249C461.212 362.596 461.212 362.986 461.255 363.42C461.255 363.636 461.255 363.853 461.255 364.07C461.255 364.243 461.233 364.438 461.19 364.655C461.233 365.262 461.233 365.89 461.19 366.541C461.147 367.148 461.125 367.754 461.125 368.361C460.605 368.578 460.128 368.708 459.694 368.751C459.304 368.795 458.806 368.816 458.199 368.816C458.026 368.86 457.787 368.881 457.484 368.881C457.224 368.925 456.963 368.946 456.703 368.946C456.443 368.99 456.227 369.011 456.053 369.011C455.88 369.055 455.815 369.076 455.858 369.076C455.641 369.076 455.381 369.098 455.078 369.142C454.818 369.185 454.514 369.207 454.168 369.207C453.994 369.207 453.821 369.185 453.647 369.142C453.474 369.142 453.301 369.033 453.127 368.816L453.387 366.801V366.411C453.344 365.76 453.301 365.132 453.257 364.525C453.214 363.875 453.236 363.311 453.322 362.834C453.366 362.574 453.387 362.228 453.387 361.794C453.431 361.361 453.452 360.905 453.452 360.429C453.452 359.952 453.452 359.497 453.452 359.063C453.452 358.586 453.431 358.174 453.387 357.828C453.301 357.134 453.236 356.549 453.192 356.072C453.192 355.552 453.192 354.728 453.192 353.601C453.236 352.691 453.257 351.976 453.257 351.456C453.257 350.935 453.236 350.22 453.192 349.31V348.725C453.192 348.118 453.149 347.576 453.062 347.099C453.019 346.622 453.019 346.21 453.062 345.864C453.236 344.953 453.279 344.065 453.192 343.198C453.149 342.287 453.171 341.334 453.257 340.337C453.301 339.6 453.301 338.885 453.257 338.191C453.257 337.498 453.257 336.782 453.257 336.045C453.257 335.308 453.279 334.572 453.322 333.835C453.409 333.098 453.452 332.361 453.452 331.624C453.452 331.277 453.474 331.082 453.517 331.039C453.604 330.952 453.821 330.909 454.168 330.909H460.865C461.082 331.125 461.342 331.494 461.645 332.014C461.948 332.491 462.209 332.881 462.425 333.184C462.772 333.618 463.097 334.116 463.401 334.68C463.747 335.243 464.051 335.742 464.311 336.175C464.658 336.912 465.026 337.476 465.416 337.866C465.806 338.256 466.132 338.776 466.392 339.426C466.608 339.643 466.782 339.903 466.912 340.207C467.085 340.467 467.259 340.684 467.432 340.857C467.649 341.204 467.931 341.637 468.277 342.157C468.624 342.678 468.971 343.111 469.318 343.458C469.881 344.195 470.358 344.867 470.748 345.474C471.182 346.08 471.702 346.731 472.309 347.424C472.655 347.901 472.959 348.334 473.219 348.725C473.479 349.115 473.761 349.548 474.064 350.025C474.411 350.415 474.779 350.87 475.17 351.391C475.603 351.867 476.08 352.409 476.6 353.016C476.687 352.973 476.839 352.821 477.055 352.561C477.315 352.257 477.51 351.997 477.64 351.781C478.031 351.391 478.421 350.892 478.811 350.285C479.244 349.678 479.656 349.136 480.046 348.66L480.696 347.359C480.783 347.186 480.892 347.034 481.022 346.904C481.152 346.731 481.26 346.579 481.347 346.449L483.102 343.783C483.276 343.349 483.622 342.808 484.143 342.157C484.706 341.507 485.248 340.727 485.768 339.817L486.093 339.426C486.527 338.69 486.917 337.996 487.264 337.346C487.61 336.652 487.957 335.937 488.304 335.2C488.564 334.637 488.824 334.203 489.084 333.9C489.388 333.553 489.691 333.098 489.995 332.534C490.168 332.187 490.255 331.971 490.255 331.884C490.298 331.754 490.385 331.559 490.515 331.299H496.432C497.169 331.472 497.689 331.559 497.992 331.559C498.296 331.559 498.512 331.559 498.643 331.559C498.859 331.559 499.054 331.581 499.228 331.624C499.444 331.624 499.726 331.624 500.073 331.624V334.29C499.9 335.027 499.791 335.677 499.748 336.24C499.748 336.804 499.748 337.367 499.748 337.931V344.498C499.748 345.278 499.77 346.037 499.813 346.774C499.856 347.468 499.878 348.226 499.878 349.05C499.921 349.266 499.943 349.505 499.943 349.765C499.943 349.982 499.943 350.22 499.943 350.48C499.986 350.957 499.986 351.304 499.943 351.521C499.943 351.737 499.965 352.084 500.008 352.561V353.406C499.965 353.666 499.921 354.121 499.878 354.772C499.835 355.379 499.791 356.029 499.748 356.722C499.705 357.373 499.661 358.023 499.618 358.673C499.618 359.28 499.618 359.713 499.618 359.973C499.618 360.32 499.64 360.754 499.683 361.274C499.726 361.794 499.748 362.228 499.748 362.574C499.748 363.441 499.726 364.352 499.683 365.305C499.683 366.216 499.575 367.126 499.358 368.036V369.532C499.184 369.748 498.946 369.857 498.643 369.857C498.382 369.9 498.144 369.922 497.927 369.922C497.537 369.835 497.125 369.813 496.692 369.857C496.302 369.9 496.02 369.922 495.847 369.922H490.84C490.753 369.315 490.688 368.708 490.645 368.101C490.601 367.494 490.58 366.909 490.58 366.346C490.58 366.085 490.58 365.717 490.58 365.24C490.623 364.763 490.645 364.265 490.645 363.745C490.645 363.181 490.645 362.661 490.645 362.184C490.645 361.707 490.623 361.339 490.58 361.079C490.58 360.775 490.601 360.32 490.645 359.713C490.688 359.063 490.71 358.586 490.71 358.283L490.645 356.072C490.645 355.639 490.623 355.292 490.58 355.032C490.58 354.728 490.58 354.468 490.58 354.251L490.45 353.016C490.45 352.929 490.45 352.821 490.45 352.691C490.493 352.518 490.515 352.388 490.515 352.301C490.341 351.304 490.32 350.329 490.45 349.375C490.623 348.421 490.667 347.489 490.58 346.579C490.623 346.275 490.645 345.994 490.645 345.734C490.645 345.474 490.645 345.213 490.645 344.953L490.515 341.572V340.857C490.341 340.77 490.255 340.727 490.255 340.727C490.211 340.77 490.19 340.814 490.19 340.857C489.626 341.377 489.128 341.941 488.694 342.548C488.261 343.111 487.827 343.761 487.394 344.498L485.378 347.684C485.161 348.074 484.901 348.53 484.598 349.05C484.294 349.527 483.991 350.025 483.687 350.545C483.384 351.065 483.081 351.564 482.777 352.041C482.517 352.474 482.257 352.843 481.997 353.146C481.867 353.32 481.672 353.58 481.412 353.926C481.195 354.273 480.935 354.663 480.631 355.097C480.371 355.487 480.09 355.899 479.786 356.332C479.526 356.766 479.266 357.156 479.006 357.503L478.746 357.893C478.529 357.979 478.226 358.023 477.836 358.023C477.489 357.979 477.207 357.958 476.99 357.958C476.6 357.958 476.21 357.979 475.82 358.023C475.43 358.023 475.04 358.023 474.649 358.023C474.303 357.676 473.956 357.199 473.609 356.592C473.262 355.985 472.959 355.509 472.699 355.162L471.854 353.926Z" fill="#8925B8"/>
<path d="M439.626 369.207C439.54 369.207 439.388 369.228 439.171 369.272C438.955 369.315 438.738 369.337 438.521 369.337C438.304 369.38 438.109 369.402 437.936 369.402C437.806 369.445 437.763 369.467 437.806 369.467H434.62C433.926 369.38 433.341 369.315 432.864 369.272C432.431 369.272 432.041 369.293 431.694 369.337C431.607 369.337 431.52 369.293 431.434 369.207C431.347 369.163 431.282 369.12 431.239 369.076C431.195 368.686 431.174 368.101 431.174 367.321C431.217 366.541 431.239 365.934 431.239 365.5V364.59C431.325 363.853 431.347 363.203 431.304 362.639C431.26 362.032 431.239 361.361 431.239 360.624V359.193C431.455 358.239 431.499 357.242 431.369 356.202C431.282 355.162 431.239 354.208 431.239 353.341V336.761C431.239 336.327 431.13 336.11 430.914 336.11C430.307 336.067 429.83 336.045 429.483 336.045C429.136 336.045 428.659 336.067 428.053 336.11C427.792 336.11 427.337 336.045 426.687 335.915C426.08 335.785 425.668 335.742 425.452 335.785C425.235 335.872 424.78 335.872 424.086 335.785C423.436 335.699 423.003 335.655 422.786 335.655C422.569 335.655 422.374 335.655 422.201 335.655C422.027 335.612 421.854 335.525 421.68 335.395V331.364C421.854 331.277 422.114 331.234 422.461 331.234C422.807 331.234 423.154 331.234 423.501 331.234C423.935 331.234 424.325 331.234 424.671 331.234C425.018 331.234 425.343 331.212 425.647 331.169C425.733 331.169 426.037 331.19 426.557 331.234C427.077 331.277 427.511 331.32 427.857 331.364C428.118 331.277 428.378 331.234 428.638 331.234C429.288 331.19 429.895 331.19 430.458 331.234C430.849 331.277 431.13 331.277 431.304 331.234C431.477 331.19 431.737 331.169 432.084 331.169H433.124L434.88 331.299C435.313 331.299 435.747 331.299 436.18 331.299C436.614 331.255 437.047 331.255 437.481 331.299C438.478 331.385 439.431 331.429 440.342 331.429C441.295 331.385 442.076 331.32 442.682 331.234C442.986 331.234 443.528 331.277 444.308 331.364C445.088 331.45 445.847 331.515 446.584 331.559C447.061 331.602 447.451 331.602 447.754 331.559C448.058 331.515 448.318 331.515 448.534 331.559V334.55C448.534 334.723 448.556 334.832 448.599 334.875C448.643 334.918 448.621 335.113 448.534 335.46C448.491 335.634 448.318 335.742 448.014 335.785C447.711 335.785 447.472 335.785 447.299 335.785C446.172 335.959 445.132 336.024 444.178 335.98C443.268 335.937 442.379 335.915 441.512 335.915C441.165 335.915 440.884 335.915 440.667 335.915C440.493 335.915 440.277 335.937 440.017 335.98V337.476C440.017 337.823 439.995 338.343 439.952 339.036C439.952 339.73 439.952 340.272 439.952 340.662C439.952 340.835 439.952 340.965 439.952 341.052C439.952 341.139 439.93 341.269 439.887 341.442C439.887 341.572 439.865 341.789 439.822 342.092C439.778 342.352 439.691 342.743 439.561 343.263C439.561 344 439.561 344.628 439.561 345.148C439.561 345.669 439.561 346.145 439.561 346.579C439.605 347.012 439.626 347.446 439.626 347.879C439.626 348.269 439.626 348.746 439.626 349.31V349.96C439.453 350.697 439.41 351.434 439.496 352.171C439.583 352.908 439.626 353.645 439.626 354.382V369.207Z" fill="#8925B8"/>
<path d="M399.098 351.13C399.098 351.174 399.25 351.195 399.553 351.195C399.857 351.152 400.203 351.13 400.594 351.13H407.876C408.223 351.13 408.526 351.065 408.786 350.935C409.09 350.805 409.415 350.74 409.762 350.74V350.35C409.848 349.96 409.913 349.375 409.957 348.595C410 347.814 410.022 347.229 410.022 346.839C410.022 346.492 410 346.145 409.957 345.799C409.913 345.409 409.892 345.04 409.892 344.693C409.935 344.346 409.935 344.021 409.892 343.718C409.848 343.371 409.827 343.024 409.827 342.678V339.687C409.827 339.557 409.827 339.275 409.827 338.841C409.87 338.364 409.87 337.888 409.827 337.411C409.827 336.717 409.848 336.154 409.892 335.72C409.935 335.243 409.913 334.615 409.827 333.835C409.87 333.661 409.87 333.51 409.827 333.379C409.783 333.206 409.762 333.011 409.762 332.794C409.762 332.708 409.74 332.643 409.697 332.599C409.697 332.512 409.697 332.426 409.697 332.339C409.697 332.166 409.697 331.992 409.697 331.819C409.697 331.646 409.718 331.45 409.762 331.234H416.719C416.936 331.45 417.044 331.646 417.044 331.819C417.087 331.949 417.109 332.122 417.109 332.339C417.109 332.946 417.087 333.531 417.044 334.095C417.044 334.615 417.044 335.113 417.044 335.59C417.044 336.37 416.979 337.216 416.849 338.126C416.762 338.993 416.719 339.903 416.719 340.857C416.719 341.204 416.741 341.637 416.784 342.157C416.827 342.678 416.806 343.154 416.719 343.588C416.589 344.672 416.502 345.712 416.459 346.709C416.459 347.706 416.459 348.703 416.459 349.7C416.459 350.567 416.502 351.456 416.589 352.366C416.676 353.233 416.719 354.035 416.719 354.772C416.632 355.075 416.589 355.617 416.589 356.397C416.589 357.134 416.589 357.936 416.589 358.803C416.632 359.67 416.654 360.494 416.654 361.274C416.697 362.054 416.719 362.596 416.719 362.899V369.532C415.765 369.532 414.898 369.575 414.118 369.662C413.381 369.792 412.623 369.857 411.842 369.857C411.496 369.857 411.192 369.857 410.932 369.857C410.715 369.9 410.434 370.03 410.087 370.247L409.762 369.857C409.805 369.553 409.827 369.141 409.827 368.621C409.827 368.101 409.805 367.559 409.762 366.996C409.762 366.389 409.762 365.825 409.762 365.305C409.762 364.785 409.762 364.373 409.762 364.07C409.805 363.073 409.827 362.076 409.827 361.079C409.87 360.038 409.892 359.02 409.892 358.023C409.892 358.066 409.87 357.958 409.827 357.698C409.827 357.438 409.827 357.156 409.827 356.852C409.827 356.506 409.805 356.18 409.762 355.877C409.762 355.574 409.762 355.379 409.762 355.292C409.762 355.118 409.697 355.053 409.567 355.097C409.48 355.14 409.35 355.14 409.177 355.097C408.7 355.01 408.31 355.01 408.006 355.097C407.703 355.14 407.334 355.162 406.901 355.162C406.641 355.162 406.316 355.183 405.925 355.227C405.535 355.227 405.123 355.248 404.69 355.292C404.3 355.292 403.91 355.314 403.52 355.357C403.129 355.4 402.804 355.422 402.544 355.422L399.683 355.487C399.467 355.487 399.272 355.487 399.098 355.487C398.968 355.444 398.816 355.444 398.643 355.487C398.513 355.487 398.448 355.574 398.448 355.747C398.448 355.834 398.47 355.899 398.513 355.942C398.513 356.462 398.535 357.004 398.578 357.568C398.621 358.088 398.643 358.651 398.643 359.258V361.014C398.643 362.141 398.621 363.246 398.578 364.33C398.578 365.414 398.491 366.519 398.318 367.646V369.532C398.101 369.705 397.884 369.792 397.668 369.792C397.494 369.835 397.234 369.857 396.887 369.857C396.541 369.857 396.107 369.857 395.587 369.857C395.067 369.9 394.633 370.03 394.286 370.247H392.401C392.184 370.247 391.989 370.204 391.816 370.117C391.642 370.073 391.361 369.987 390.97 369.857V365.435C390.97 364.352 390.949 363.658 390.905 363.355C390.905 363.051 390.905 362.813 390.905 362.639C390.819 362.423 390.797 362.162 390.84 361.859C390.884 361.556 390.905 361.339 390.905 361.209C390.992 360.299 390.992 359.367 390.905 358.413C390.862 357.416 390.819 356.592 390.775 355.942C390.732 355.552 390.71 355.183 390.71 354.837C390.71 354.447 390.71 354.056 390.71 353.666C390.71 352.929 390.732 352.214 390.775 351.521C390.862 350.784 390.862 350.047 390.775 349.31C390.689 348.356 390.71 347.576 390.84 346.969C390.884 346.796 390.862 346.492 390.775 346.059C390.689 345.582 390.645 345.083 390.645 344.563C390.645 343.87 390.667 343.241 390.71 342.678C390.754 342.114 390.775 341.572 390.775 341.052C390.819 340.532 390.84 339.99 390.84 339.426C390.884 338.863 390.884 338.234 390.84 337.541C390.84 337.367 390.84 337.086 390.84 336.696C390.84 336.262 390.84 335.807 390.84 335.33C390.884 334.853 390.905 334.42 390.905 334.03C390.949 333.596 390.97 333.293 390.97 333.119C390.97 332.729 390.927 332.447 390.84 332.274C390.754 332.057 390.71 331.862 390.71 331.689V331.234H398.643C398.816 331.407 398.946 331.581 399.033 331.754C399.076 331.841 399.098 331.906 399.098 331.949C399.141 332.816 399.141 333.661 399.098 334.485C399.055 335.308 399.011 336.154 398.968 337.021C398.968 338.191 398.99 339.34 399.033 340.467C399.12 341.594 399.185 342.721 399.228 343.848C399.228 344.455 399.206 345.083 399.163 345.734C399.163 346.384 399.163 347.012 399.163 347.619C399.163 348.226 399.141 348.898 399.098 349.635C399.055 350.372 399.055 350.87 399.098 351.13Z" fill="#8925B8"/>
<path d="M376.879 364.265C377.096 364.178 377.378 364.091 377.725 364.005C378.071 363.918 378.418 363.766 378.765 363.55C378.765 362.986 378.787 362.488 378.83 362.054C378.873 361.621 378.895 361.165 378.895 360.689C378.895 360.472 378.873 360.277 378.83 360.103C378.83 359.887 378.83 359.67 378.83 359.453C378.83 359.193 378.808 358.955 378.765 358.738C378.765 358.521 378.765 358.283 378.765 358.023C378.765 357.589 378.765 357.134 378.765 356.657C378.765 356.18 378.678 355.769 378.505 355.422H374.279L374.148 354.186L373.953 353.081C373.953 352.994 373.953 352.908 373.953 352.821C373.953 352.734 373.975 352.648 374.018 352.561C374.322 352.604 374.69 352.626 375.124 352.626C375.557 352.583 375.969 352.539 376.359 352.496C376.446 352.496 376.684 352.496 377.074 352.496C377.508 352.496 377.941 352.518 378.375 352.561C378.852 352.561 379.285 352.583 379.675 352.626C380.065 352.626 380.304 352.626 380.391 352.626H381.171C381.648 352.713 382.059 352.734 382.406 352.691C382.796 352.604 383.273 352.561 383.837 352.561C384.053 352.518 384.292 352.518 384.552 352.561C384.855 352.604 385.116 352.604 385.332 352.561C385.506 352.561 385.614 352.583 385.657 352.626C385.701 352.626 385.831 352.734 386.047 352.951C386.004 353.298 385.982 353.645 385.982 353.991C385.982 354.295 385.982 354.62 385.982 354.967C386.026 355.444 386.047 355.92 386.047 356.397C386.091 356.831 386.091 357.286 386.047 357.763C386.004 358.37 385.982 358.976 385.982 359.583C385.982 360.19 385.982 360.797 385.982 361.404C385.982 362.054 385.982 362.661 385.982 363.224C385.982 363.788 386.004 364.395 386.047 365.045V368.101C386.004 368.665 386.004 369.141 386.047 369.532C386.091 369.965 386.047 370.204 385.917 370.247C385.571 370.464 385.072 370.55 384.422 370.507C383.815 370.507 383.273 370.507 382.796 370.507H379.09C379.09 370.204 379.09 369.813 379.09 369.337C379.133 368.86 379.133 368.513 379.09 368.296H378.765C377.811 368.47 376.879 368.643 375.969 368.816C375.059 369.033 374.127 369.25 373.173 369.467C372.956 369.51 372.761 369.532 372.588 369.532C372.415 369.575 372.219 369.597 372.003 369.597C371.439 369.597 370.897 369.575 370.377 369.532C369.857 369.532 369.359 369.532 368.882 369.532C368.275 369.488 367.603 369.423 366.866 369.337C366.172 369.25 365.674 369.141 365.371 369.011C364.85 368.838 364.135 368.535 363.225 368.101C362.358 367.711 361.621 367.408 361.014 367.191C360.667 366.844 360.32 366.562 359.974 366.346C359.627 366.085 359.28 365.76 358.933 365.37C358.717 365.153 358.5 364.958 358.283 364.785C358.11 364.612 357.936 364.438 357.763 364.265C357.026 363.528 356.397 362.704 355.877 361.794C355.4 360.884 354.902 360.017 354.382 359.193C354.295 358.63 354.1 358.131 353.797 357.698C353.537 357.264 353.406 356.766 353.406 356.202C353.406 355.595 353.341 355.032 353.211 354.512C353.081 353.948 353.016 353.428 353.016 352.951C353.016 352.648 353.038 352.236 353.081 351.716C353.125 351.195 353.168 350.654 353.211 350.09C353.298 349.527 353.385 349.006 353.472 348.53C353.558 348.053 353.645 347.684 353.732 347.424C353.732 347.034 353.797 346.579 353.927 346.059C354.057 345.539 354.208 345.105 354.382 344.758C354.599 344.238 354.88 343.631 355.227 342.938C355.574 342.244 355.921 341.637 356.267 341.117C356.484 340.77 356.679 340.51 356.853 340.337C357.026 340.12 357.199 339.903 357.373 339.687C357.72 339.08 358.153 338.538 358.673 338.061C359.237 337.541 359.779 337.107 360.299 336.761C361.166 336.197 362.011 335.612 362.835 335.005C363.658 334.398 364.439 333.986 365.175 333.77C365.739 333.423 366.324 333.141 366.931 332.924C367.581 332.708 368.21 332.491 368.817 332.274C369.684 331.927 370.529 331.711 371.353 331.624C372.176 331.537 373.021 331.385 373.888 331.169H375.449C375.622 331.169 375.861 331.169 376.164 331.169C376.511 331.125 376.858 331.017 377.205 330.844H378.05C378.397 330.844 378.635 330.865 378.765 330.909C378.938 330.909 379.285 330.995 379.805 331.169C379.979 331.385 380.022 331.667 379.935 332.014C379.849 332.317 379.805 332.664 379.805 333.054V334.875C379.459 334.832 379.025 334.853 378.505 334.94C378.028 335.027 377.53 335.135 377.009 335.265C376.533 335.352 376.034 335.482 375.514 335.655C375.037 335.785 374.625 335.894 374.279 335.98C373.715 336.197 373.086 336.479 372.393 336.826C371.743 337.129 371.027 337.454 370.247 337.801C370.204 337.801 369.987 337.974 369.597 338.321C369.25 338.625 368.838 338.971 368.362 339.361C367.928 339.752 367.516 340.12 367.126 340.467C366.779 340.814 366.584 341.03 366.541 341.117C365.717 342.071 365.089 343.046 364.655 344.043C364.265 345.04 363.81 346.037 363.29 347.034C363.073 347.728 362.943 348.465 362.9 349.245C362.856 350.025 362.748 350.849 362.575 351.716V353.666C362.748 354.36 362.921 355.01 363.095 355.617C363.268 356.224 363.442 356.896 363.615 357.633C363.875 358.413 364.222 359.085 364.655 359.648C365.132 360.212 365.674 360.797 366.281 361.404C366.498 361.621 366.909 361.989 367.516 362.509C368.166 362.986 368.773 363.333 369.337 363.55C369.814 363.723 370.291 363.853 370.767 363.94C371.244 364.026 371.743 364.178 372.263 364.395C372.48 364.482 372.675 364.547 372.848 364.59C373.021 364.633 373.195 364.655 373.368 364.655C373.975 364.655 374.539 364.612 375.059 364.525C375.622 364.438 376.229 364.352 376.879 364.265Z" fill="#8925B8"/>
<path d="M350.043 362.314C350.043 362.401 350.043 362.574 350.043 362.834C350.043 363.051 350.043 363.311 350.043 363.615C350.043 363.875 350.043 364.135 350.043 364.395C350.043 364.655 350.043 364.85 350.043 364.98C350.043 366.15 350.043 366.952 350.043 367.386C350.086 367.819 350.108 368.34 350.108 368.946C350.108 369.076 350.021 369.185 349.847 369.272C349.717 369.402 349.566 369.488 349.392 369.532H345.231V368.816L344.906 364.2C344.906 363.376 344.884 362.574 344.841 361.794C344.841 361.014 344.819 360.233 344.776 359.453V357.698C344.776 357.091 344.754 356.506 344.711 355.942C344.667 355.335 344.689 354.728 344.776 354.121V351.911C344.776 351.13 344.754 350.372 344.711 349.635C344.711 348.855 344.689 348.096 344.646 347.359C344.646 347.142 344.646 346.969 344.646 346.839C344.689 346.666 344.711 346.471 344.711 346.254C344.711 345.343 344.689 344.52 344.646 343.783C344.646 343.046 344.646 342.331 344.646 341.637C344.646 340.9 344.646 340.142 344.646 339.361C344.646 338.581 344.624 337.714 344.581 336.761V334.94C344.537 334.463 344.494 333.986 344.451 333.509C344.451 332.989 344.451 332.491 344.451 332.014V331.819C344.451 331.646 344.472 331.494 344.516 331.364C344.559 331.32 344.797 331.255 345.231 331.169C345.448 331.125 345.729 331.125 346.076 331.169C346.38 331.255 346.748 331.299 347.182 331.299C347.615 331.255 348.092 331.234 348.612 331.234C349.046 331.234 349.392 331.277 349.652 331.364C349.956 331.45 350.108 331.537 350.108 331.624V341.767C350.064 342.114 350.043 342.461 350.043 342.808C350.086 343.111 350.086 343.436 350.043 343.783C349.999 344.26 349.978 344.737 349.978 345.213C350.021 345.69 350.043 346.167 350.043 346.644V347.749C350.043 347.879 350.043 348.031 350.043 348.204C350.043 348.334 350.021 348.486 349.978 348.66C349.934 348.746 349.913 348.92 349.913 349.18C349.913 349.397 349.913 349.635 349.913 349.895C349.956 350.155 349.978 350.415 349.978 350.675C350.021 350.935 350.043 351.109 350.043 351.195C350.086 352.366 350.064 353.059 349.978 353.276C349.934 353.493 349.913 353.666 349.913 353.796C349.869 354.403 349.869 355.01 349.913 355.617C349.999 356.224 350.043 356.831 350.043 357.438C350.086 358.261 350.086 359.085 350.043 359.908C350.043 360.689 350.043 361.491 350.043 362.314Z" fill="#8925B8"/>
<path d="M322.651 344.238C323.518 345.712 324.428 347.272 325.382 348.92C326.379 350.567 327.441 352.301 328.568 354.121C328.784 354.728 329.044 355.292 329.348 355.812C329.695 356.289 330.041 356.701 330.388 357.047C330.562 357.394 330.778 357.828 331.038 358.348C331.299 358.825 331.559 359.237 331.819 359.583L331.949 359.323V356.007C331.949 355.92 331.949 355.877 331.949 355.877C331.992 355.834 332.014 355.769 332.014 355.682C331.84 354.685 331.797 353.796 331.884 353.016C332.014 352.192 332.035 351.326 331.949 350.415C331.992 350.112 332.014 349.83 332.014 349.57C332.014 349.31 332.014 349.05 332.014 348.79L331.884 345.409V337.346C331.884 337.172 331.884 336.847 331.884 336.37C331.927 335.894 331.949 335.373 331.949 334.81C331.949 334.203 331.949 333.618 331.949 333.054C331.949 332.491 331.949 332.057 331.949 331.754C331.949 331.581 331.97 331.429 332.014 331.299C332.1 331.125 332.317 331.039 332.664 331.039H334.81C335.2 331.039 335.655 331.104 336.175 331.234C336.695 331.364 337.042 331.429 337.216 331.429H337.541C337.541 332.903 337.541 334.42 337.541 335.98C337.584 337.498 337.606 338.95 337.606 340.337C337.649 341.681 337.692 342.938 337.736 344.108C337.779 345.235 337.822 346.145 337.866 346.839C337.822 347.186 337.801 347.533 337.801 347.879C337.844 348.183 337.844 348.508 337.801 348.855C337.757 349.332 337.736 349.808 337.736 350.285C337.779 350.762 337.801 351.239 337.801 351.716V354.837C337.844 356.007 337.822 356.939 337.736 357.633C337.692 358.326 337.671 358.738 337.671 358.868C337.627 359.475 337.606 360.082 337.606 360.689C337.606 361.296 337.606 361.902 337.606 362.509C337.649 363.333 337.649 364.157 337.606 364.98C337.562 365.76 337.562 366.562 337.606 367.386C337.606 367.733 337.606 368.058 337.606 368.361C337.606 368.665 337.627 368.99 337.671 369.337C337.671 369.553 337.432 369.662 336.955 369.662H334.81C334.29 369.748 333.878 369.77 333.574 369.727C333.271 369.683 333.054 369.662 332.924 369.662C332.707 369.098 332.512 368.621 332.339 368.231C332.165 367.884 331.97 367.538 331.754 367.191C331.58 366.844 331.385 366.497 331.168 366.151C330.952 365.76 330.692 365.305 330.388 364.785C330.258 364.568 330.085 364.287 329.868 363.94C329.651 363.55 329.456 363.246 329.283 363.029C329.023 362.726 328.806 362.379 328.633 361.989C328.459 361.556 328.177 361.166 327.787 360.819C327.224 359.952 326.682 359.063 326.162 358.153C325.642 357.199 325.078 356.246 324.471 355.292C323.864 354.382 323.171 353.45 322.391 352.496C321.61 351.499 320.83 350.394 320.05 349.18C319.703 348.356 319.183 347.511 318.489 346.644C317.839 345.777 317.275 344.953 316.799 344.173C316.799 344.086 316.777 344.26 316.734 344.693C316.734 345.127 316.734 345.625 316.734 346.189C316.734 346.709 316.712 347.207 316.669 347.684C316.669 348.118 316.669 348.335 316.669 348.335V348.855C316.712 349.201 316.712 349.548 316.669 349.895C316.625 350.198 316.604 350.524 316.604 350.87L316.474 358.933L316.604 362.314C316.604 362.574 316.604 362.834 316.604 363.094C316.647 363.355 316.647 363.636 316.604 363.94C316.69 364.547 316.712 365.197 316.669 365.89C316.625 366.541 316.625 367.191 316.669 367.841C316.712 368.448 316.69 368.881 316.604 369.142C316.56 369.402 316.495 369.575 316.409 369.662H311.272C310.925 369.662 310.557 369.662 310.166 369.662C309.82 369.705 309.473 369.705 309.126 369.662C309.083 369.662 309.039 369.467 308.996 369.077C308.996 368.73 308.996 368.296 308.996 367.776C308.996 367.299 308.996 366.801 308.996 366.281C308.996 365.76 308.996 365.37 308.996 365.11C308.996 364.503 308.996 363.896 308.996 363.29C309.039 362.639 309.039 362.011 308.996 361.404C308.996 360.797 309.018 360.212 309.061 359.648C309.104 359.041 309.104 358.435 309.061 357.828C309.061 357.394 309.039 357.047 308.996 356.787C308.996 356.484 308.996 356.224 308.996 356.007L308.866 355.032C308.866 354.945 308.866 354.902 308.866 354.902C308.909 354.858 308.931 354.793 308.931 354.707C308.758 353.71 308.693 352.734 308.736 351.781C308.823 350.827 308.823 349.895 308.736 348.985C308.779 348.681 308.801 348.4 308.801 348.139C308.801 347.879 308.801 347.619 308.801 347.359L308.671 343.978L308.866 335.915C308.866 335.569 308.844 335.243 308.801 334.94C308.801 334.593 308.779 334.246 308.736 333.9L309.126 333.314C309.343 333.314 309.711 333.314 310.231 333.314C310.752 333.271 311.358 333.271 312.052 333.314C312.616 333.314 313.027 333.293 313.287 333.249C313.591 333.163 313.916 333.119 314.263 333.119C314.48 333.119 314.653 333.163 314.783 333.249C314.956 333.293 315.173 333.314 315.433 333.314H316.799C316.929 333.661 317.102 334.03 317.319 334.42C317.579 334.81 317.817 335.222 318.034 335.655C318.511 336.609 318.858 337.433 319.074 338.126C319.334 338.776 319.573 339.253 319.79 339.557C319.963 339.773 320.18 340.077 320.44 340.467C320.7 340.857 320.96 341.269 321.22 341.702C321.48 342.136 321.719 342.591 321.935 343.068C322.195 343.501 322.434 343.891 322.651 344.238Z" fill="#8925B8"/>
<path d="M613.319 304.857C608.204 304.857 603.349 303.903 598.754 301.996C594.246 300.002 590.214 297.314 586.66 293.933C583.192 290.552 580.461 286.651 578.467 282.229C576.473 277.721 575.476 272.996 575.476 268.055C575.476 262.94 576.473 258.171 578.467 253.75C580.548 249.242 583.409 245.254 587.05 241.786C590.691 238.318 594.852 235.63 599.534 233.723C604.302 231.729 609.374 230.732 614.749 230.732C626.02 230.732 636.77 235.414 647 244.777L634.646 258.301C631.872 253.186 628.317 249.068 623.982 245.947C619.734 242.739 615.529 241.136 611.368 241.136C606.86 241.136 603.219 243.043 600.444 246.857C597.757 250.672 596.413 255.787 596.413 262.203C596.413 268.011 597.41 273.343 599.404 278.198C601.485 283.053 604.259 286.954 607.727 289.902C611.195 292.763 614.966 294.193 619.041 294.193C622.595 294.193 626.106 293.066 629.574 290.812C633.129 288.558 636.076 285.524 638.417 281.709L646.35 289.512C636.12 299.742 625.109 304.857 613.319 304.857Z" fill="#BC04BE"/>
<path d="M543.295 304.467C543.208 301.606 543.122 297.748 543.035 292.893C542.948 287.951 542.862 282.316 542.775 275.987C542.775 269.572 542.732 262.723 542.645 255.44C542.645 248.158 542.645 240.702 542.645 233.073C546.546 233.073 550.621 233.116 554.869 233.203C559.204 233.29 562.585 233.42 565.012 233.593C565.012 239.922 564.969 246.554 564.882 253.49C564.882 260.425 564.839 267.188 564.752 273.776C564.752 280.279 564.709 286.174 564.622 291.462C564.536 296.751 564.449 300.912 564.362 303.947C560.374 304.12 556.56 304.25 552.918 304.337C549.277 304.423 546.069 304.467 543.295 304.467Z" fill="#BC04BE"/>
<path d="M470.976 321.112L470.585 310.709C477.608 310.362 483.46 309.625 488.141 308.498C492.823 307.371 496.594 305.681 499.455 303.427C502.316 301.086 504.484 297.878 505.957 293.803C500.322 297.705 494.167 299.655 487.491 299.655C481.943 299.655 477.044 298.311 472.796 295.624C468.548 292.936 465.254 289.208 462.913 284.44C460.572 279.585 459.402 273.993 459.402 267.664C459.402 260.816 460.702 254.617 463.303 249.068C465.991 243.433 469.588 238.968 474.097 235.674C478.605 232.379 483.59 230.732 489.052 230.732C491.826 230.732 494.73 231.166 497.765 232.032C500.886 232.899 504.007 234.07 507.128 235.544C507.041 234.503 506.954 233.42 506.868 232.293C510.682 232.119 514.28 231.989 517.661 231.902C521.129 231.816 524.987 231.772 529.235 231.772C529.495 239.142 529.625 245.73 529.625 251.539C529.625 262.81 529.105 272.476 528.065 280.539C527.025 288.602 525.247 295.277 522.733 300.566C520.219 305.767 516.708 309.885 512.2 312.92C507.778 315.954 502.186 318.078 495.424 319.292C488.662 320.506 480.512 321.112 470.976 321.112ZM479.038 263.243C479.038 270.612 480.512 276.464 483.46 280.799C486.407 285.134 490.352 287.301 495.294 287.301C501.796 287.301 506.261 283.573 508.688 276.117C508.775 274.123 508.818 271.956 508.818 269.615C508.818 267.188 508.775 264.63 508.688 261.943C508.602 259.255 508.472 256.221 508.298 252.839C506.651 249.545 504.397 246.901 501.536 244.907C498.762 242.826 495.814 241.786 492.693 241.786C488.445 241.786 485.107 243.693 482.68 247.508C480.252 251.322 479.038 256.567 479.038 263.243Z" fill="#BC04BE"/>
<path d="M402.458 304.857C395.089 304.857 389.063 303.08 384.382 299.525C379.787 295.884 377.489 291.159 377.489 285.35C377.489 280.062 379.397 275.164 383.211 270.655C387.113 266.147 392.488 262.333 399.337 259.212C406.186 256.004 414.032 253.793 422.875 252.579C419.754 244.95 415.462 241.136 410 241.136C406.706 241.136 402.458 242.393 397.256 244.907C392.054 247.421 386.766 250.715 381.391 254.79L377.489 241.786C390.407 234.417 402.631 230.732 414.162 230.732C423.178 230.732 430.417 233.203 435.879 238.145C441.341 243 445.329 250.802 447.843 261.552C450.357 272.216 451.614 286.347 451.614 303.947C449.967 304.033 447.019 304.12 442.771 304.207C438.61 304.38 434.102 304.467 429.247 304.467C429.247 301.693 429.203 298.962 429.117 296.274C420.187 301.996 411.301 304.857 402.458 304.857ZM398.947 284.44C398.947 287.128 399.987 289.252 402.068 290.812C404.235 292.373 407.096 293.153 410.651 293.153C416.893 293.153 422.918 290.466 428.727 285.09C428.206 275.901 427.209 268.141 425.736 261.813C422.354 262.506 419.06 263.633 415.852 265.194C412.731 266.754 409.87 268.618 407.269 270.786C404.755 272.866 402.718 275.12 401.157 277.548C399.684 279.889 398.947 282.186 398.947 284.44Z" fill="#BC04BE"/>
<path d="M266.251 205.504C271.106 204.983 275.571 204.593 279.646 204.333C283.807 203.986 287.665 203.813 291.22 203.813C293.214 210.315 295.511 217.121 298.112 224.23C300.713 231.339 303.444 238.491 306.305 245.687C309.252 252.883 312.243 259.818 315.278 266.494C319.786 256.784 324.077 246.814 328.152 236.584C332.313 226.354 336.388 215.474 340.376 203.943C345.058 203.943 349.696 204.073 354.291 204.333C358.886 204.593 362.787 204.94 365.995 205.373C365.995 210.142 365.995 215.82 365.995 222.409C366.081 228.911 366.125 235.934 366.125 243.476C366.211 250.932 366.298 258.388 366.385 265.844C366.472 273.3 366.558 280.322 366.645 286.911C366.732 293.5 366.862 299.178 367.035 303.947C365.041 304.033 362.614 304.12 359.753 304.207C356.892 304.293 353.901 304.337 350.78 304.337C347.659 304.424 344.754 304.467 342.067 304.467C342.413 295.711 342.674 286.954 342.847 278.198C343.02 269.355 343.15 260.772 343.237 252.449C343.41 244.127 343.497 236.411 343.497 229.302C339.856 239.532 336.085 249.285 332.183 258.561C328.369 267.838 324.294 276.984 319.959 286.001L299.932 287.171C294.991 276.421 290.396 266.147 286.148 256.351C281.9 246.467 278.128 237.278 274.834 228.781L277.695 304.467L263 303.947C263.26 299.352 263.52 294.107 263.78 288.211C264.04 282.316 264.257 276.117 264.43 269.615C264.691 263.113 264.907 256.654 265.081 250.239C265.341 243.736 265.558 237.581 265.731 231.772C265.904 225.877 266.034 220.675 266.121 216.167C266.208 211.572 266.251 208.018 266.251 205.504Z" fill="#BC04BE"/>
<path d="M553.308 185C553.308 185 554.975 196.707 560.082 201.38C565.193 206.057 577.014 206.674 577.014 206.674C577.014 206.674 566.378 207.491 561.428 211.504C555.882 216 553.308 227.884 553.308 227.884C553.308 227.884 550.735 216 545.189 211.504C540.239 207.491 529.603 206.674 529.603 206.674C529.603 206.674 541.424 206.057 546.535 201.38C551.642 196.707 553.308 185 553.308 185Z" fill="#D151A0"/>
<path d="M414.828 180.434C414.491 181.034 414.153 181.548 413.815 181.977C413.519 182.406 413.117 182.878 412.609 183.394C412.269 183.695 411.866 184.018 411.399 184.362C410.932 184.664 410.465 184.966 409.998 185.268C409.531 185.57 409.084 185.829 408.659 186.045C408.276 186.219 408 186.306 407.829 186.307C407.147 186.397 406.487 186.53 405.848 186.705C405.251 186.837 404.633 186.906 403.993 186.91C403.78 186.997 403.525 187.02 403.226 186.98C402.927 186.939 402.606 186.92 402.265 186.922L401.561 186.927C401.522 187.44 401.483 188.016 401.445 188.656C401.407 189.254 401.347 189.894 401.267 190.577C401.229 191.26 401.17 191.922 401.089 192.563C401.05 193.16 401.033 193.715 401.036 194.227C400.999 194.953 400.919 195.7 400.796 196.469C400.673 197.238 400.636 197.921 400.682 198.518C400.684 198.688 400.665 199.009 400.625 199.478C400.628 199.905 400.61 200.353 400.571 200.823C400.574 201.292 400.555 201.697 400.515 202.039C400.475 202.381 400.455 202.551 400.455 202.551C400.243 202.766 399.945 202.875 399.561 202.878C399.177 202.88 398.815 202.947 398.474 203.077C398.005 203.081 397.6 203.105 397.259 203.15C396.918 203.195 396.577 203.219 396.235 203.221C396.274 202.709 396.291 202.09 396.286 201.365C396.281 200.639 396.276 199.871 396.27 199.061C396.264 198.25 396.237 197.44 396.189 196.629C396.183 195.819 396.178 195.072 396.173 194.389C396.169 193.792 396.207 193.13 396.287 192.404C396.368 191.678 396.384 190.974 396.337 190.292L396.301 185.172C396.341 184.83 396.338 184.404 396.292 183.892C396.245 183.338 396.221 182.89 396.218 182.549C396.125 181.355 396.095 180.139 396.129 178.901C396.205 177.663 396.198 176.575 396.106 175.637C396.016 175.04 395.969 174.422 395.965 173.782C396.003 173.142 396.02 172.523 396.016 171.926C396.01 171.115 395.983 170.326 395.935 169.558C395.93 168.748 395.945 167.915 395.982 167.062C395.979 166.635 395.976 166.209 395.973 165.782C396.013 165.355 396.01 164.95 395.964 164.566C396.176 164.351 396.41 164.243 396.666 164.241C396.922 164.197 397.135 164.174 397.306 164.173C397.817 164.084 398.414 164.037 399.097 164.032C399.779 163.985 400.483 163.98 401.209 164.017C401.977 164.012 402.702 164.028 403.385 164.066C404.111 164.103 404.73 164.163 405.242 164.245C405.712 164.284 406.203 164.366 406.716 164.491C407.229 164.572 407.784 164.654 408.382 164.735C408.894 164.817 409.3 164.899 409.6 164.982C410.713 165.572 411.699 166.205 412.557 166.882C413.415 167.558 414.103 168.343 414.622 169.235C414.88 169.617 415.118 170.085 415.335 170.638C415.595 171.149 415.77 171.745 415.86 172.427L415.89 176.715C415.808 177.227 415.663 177.847 415.455 178.574C415.289 179.3 415.08 179.92 414.828 180.434ZM408.028 178.242C408.233 176.96 408.245 175.701 408.066 174.465C407.929 173.229 407.752 172.313 407.535 171.717C407.491 171.589 407.383 171.419 407.211 171.207C407.082 170.995 406.888 170.762 406.63 170.507C406.372 170.253 406.072 170.021 405.729 169.81C405.429 169.598 405.129 169.451 404.83 169.368L404.125 169.245C402.928 168.912 401.903 168.77 401.05 168.818C401.053 169.245 401.035 169.693 400.996 170.163C400.999 170.589 401.002 171.037 401.005 171.507C401.011 172.36 401.017 173.213 401.023 174.067C401.029 174.92 400.992 175.667 400.911 176.308C400.958 177.033 400.984 177.651 400.988 178.163C401.034 178.632 401.059 179.229 401.064 179.955C401.066 180.168 401.046 180.445 401.006 180.787C401.008 181.086 401.01 181.406 401.013 181.747C401.015 182.046 401.017 182.323 401.019 182.579C401.02 182.835 401.043 182.984 401.086 183.027C401.556 183.194 402.431 183.166 403.709 182.944C403.922 182.9 404.306 182.791 404.859 182.616C405.455 182.399 405.943 182.096 406.325 181.71C406.748 181.28 407.086 180.766 407.338 180.167C407.589 179.525 407.82 178.883 408.028 178.242ZM421.092 193.511C421.385 192.655 421.678 191.821 421.971 191.008C422.306 190.153 422.62 189.297 422.913 188.442C423.122 187.8 423.395 187.158 423.731 186.516C424.068 185.873 424.363 185.295 424.615 184.782C424.823 184.055 425.033 183.477 425.243 183.049C425.496 182.578 425.643 182.278 425.685 182.15C425.684 182.065 425.768 181.851 425.936 181.508C426.147 181.165 426.378 180.609 426.629 179.839C426.754 179.455 426.858 179.048 426.94 178.621C427.065 178.194 427.212 177.787 427.38 177.402L428.89 173.679C429.057 173.209 429.161 172.867 429.202 172.653C429.286 172.397 429.348 172.183 429.39 172.012C429.431 171.841 429.473 171.649 429.514 171.435C429.555 171.221 429.681 170.879 429.891 170.408C430.101 169.937 430.268 169.488 430.393 169.061C430.561 168.633 430.75 168.184 430.96 167.713C431.043 167.456 431.127 167.2 431.21 166.943C431.294 166.686 431.377 166.43 431.461 166.173C431.587 165.831 431.691 165.532 431.775 165.275C431.858 165.018 431.941 164.719 432.024 164.377C432.109 164.291 432.172 164.184 432.214 164.056C432.256 163.885 432.34 163.692 432.466 163.478C432.721 163.306 432.934 163.219 433.104 163.218C433.275 163.174 433.445 163.151 433.616 163.15L436.56 163.129C436.646 163.299 436.69 163.47 436.691 163.64C436.692 163.768 436.736 163.918 436.822 164.088L437.085 165.046L437.281 165.556L437.999 167.535L439.174 170.791L439.627 171.62C439.713 171.705 439.8 171.896 439.887 172.194C439.974 172.45 440.105 172.79 440.279 173.216C440.496 173.769 440.714 174.407 440.932 175.131C441.193 175.812 441.432 176.493 441.65 177.174C441.956 178.239 442.197 179.026 442.371 179.537C442.588 180.048 442.805 180.579 443.022 181.133C443.151 181.302 443.238 181.494 443.282 181.707C443.326 181.92 443.392 182.133 443.479 182.345L444.329 184.963L445.433 187.26C445.564 187.643 445.694 188.026 445.825 188.409C445.998 188.749 446.193 189.089 446.408 189.429C446.756 190.28 447.038 191.067 447.257 191.791C447.475 192.472 447.758 193.238 448.105 194.089C448.278 194.472 448.452 194.833 448.625 195.174C448.84 195.513 449.014 195.875 449.144 196.258C449.231 196.471 449.318 196.683 449.405 196.896C449.492 197.109 449.578 197.322 449.665 197.534C449.881 197.917 450.055 198.321 450.186 198.747C450.359 199.13 450.554 199.555 450.771 200.023C450.858 200.278 450.966 200.533 451.096 200.788C451.226 201.044 451.313 201.278 451.357 201.491C451.144 201.492 450.93 201.472 450.717 201.431C450.503 201.39 450.311 201.37 450.14 201.371L449.052 201.379C448.668 201.381 448.327 201.384 448.028 201.386C447.73 201.431 447.474 201.454 447.261 201.455C447.044 200.945 446.72 200.456 446.29 199.99C445.903 199.481 445.493 198.865 445.061 198.143C444.975 197.93 444.888 197.739 444.801 197.568C444.715 197.398 444.628 197.228 444.542 197.058C444.455 196.803 444.196 196.442 443.766 195.976C443.379 195.509 443.163 195.148 443.119 194.892C442.775 194.511 442.516 194.214 442.344 194.002C442.214 193.747 442.042 193.513 441.827 193.301C441.657 193.302 441.443 193.304 441.187 193.306C440.931 193.265 440.696 193.224 440.482 193.183C440.226 193.142 439.949 193.122 439.65 193.124L438.114 193.135C437.901 193.137 437.666 193.16 437.411 193.204C437.197 193.206 436.856 193.229 436.387 193.275C435.918 193.279 435.278 193.304 434.468 193.353C433.657 193.358 432.569 193.366 431.204 193.376L430.756 193.379C430.414 193.381 430.137 193.426 429.925 193.513C429.754 193.556 429.498 193.516 429.156 193.39C429.027 193.306 428.707 193.286 428.195 193.333C427.726 193.379 427.407 193.424 427.236 193.467L426.405 193.537L426.088 193.988C426.004 194.244 425.857 194.544 425.646 194.887C425.435 195.229 425.224 195.572 425.013 195.915C424.802 196.258 424.591 196.601 424.38 196.944C424.212 197.286 424.086 197.564 424.002 197.778L423.562 198.933L421.983 201.889C421.899 202.06 421.772 202.146 421.601 202.147C421.43 202.148 421.302 202.192 421.218 202.278L417.954 202.301C417.782 202.131 417.696 202.025 417.696 201.983C417.695 201.94 417.78 201.811 417.949 201.597C417.948 201.426 418.01 201.17 418.136 200.827C418.261 200.528 418.324 200.293 418.323 200.122C418.534 199.779 418.702 199.437 418.827 199.095C418.995 198.709 419.163 198.346 419.332 198.003L421.092 193.511ZM434.421 177.545C434.208 177.632 434.059 177.739 433.975 177.868C433.891 177.996 433.806 178.146 433.722 178.318C433.556 178.916 433.325 179.515 433.031 180.115C432.779 180.671 432.527 181.249 432.275 181.848C432.065 182.276 431.854 182.683 431.643 183.068C431.432 183.411 431.243 183.796 431.075 184.224C430.697 185.08 430.319 185.936 429.941 186.792C429.563 187.606 429.142 188.419 428.679 189.233L429.063 189.231C429.404 189.228 429.703 189.247 429.959 189.288C430.258 189.329 430.556 189.305 430.854 189.218C431.11 189.131 431.344 189.108 431.558 189.149C431.814 189.19 432.049 189.21 432.262 189.208C432.988 189.203 433.734 189.198 434.502 189.192C435.27 189.144 436.124 189.16 437.063 189.239C437.532 189.278 437.959 189.275 438.343 189.23C438.769 189.184 439.196 189.16 439.622 189.157L440.198 189.153C440.154 188.982 440.089 188.855 440.004 188.77C439.96 188.642 439.895 188.515 439.809 188.387C439.636 188.047 439.442 187.75 439.227 187.495C439.054 187.24 438.903 186.922 438.772 186.538L436.501 182.074C436.414 181.862 436.326 181.585 436.239 181.244L434.421 177.545ZM455.138 184.824C455.092 184.397 455.089 183.992 455.129 183.608C455.212 183.223 455.252 182.839 455.249 182.455C455.244 181.772 455.219 181.132 455.172 180.535C455.167 179.895 455.163 179.234 455.158 178.551L455.137 175.543C455.135 175.33 455.112 175.117 455.068 174.904C455.066 174.648 455.043 174.413 454.999 174.2L454.958 168.249C454.997 167.736 454.992 167.118 454.945 166.393C454.939 165.625 454.936 165.134 454.934 164.921C454.933 164.793 454.911 164.665 454.868 164.537C454.824 164.409 454.823 164.303 454.865 164.217C455.079 164.216 455.292 164.193 455.505 164.149C455.761 164.104 456.08 164.081 456.464 164.078C456.805 164.033 457.146 163.988 457.487 163.943C457.828 163.898 458.212 163.874 458.639 163.871L461.519 163.85C461.86 163.848 462.159 163.867 462.415 163.908C462.671 163.906 463.013 163.947 463.44 164.029C463.483 164.071 463.526 164.092 463.569 164.092C463.612 164.134 463.74 164.155 463.953 164.153C464.209 164.066 464.571 164.042 465.041 164.082C465.553 164.121 466.065 164.16 466.577 164.199C466.919 164.239 467.24 164.322 467.539 164.448C467.839 164.574 468.095 164.636 468.309 164.635C468.394 164.634 468.608 164.718 468.95 164.886C469.293 165.012 469.656 165.18 470.042 165.391C470.427 165.559 470.77 165.727 471.069 165.896C471.412 166.021 471.647 166.105 471.775 166.147C472.331 166.356 472.845 166.63 473.317 166.968C473.831 167.263 474.218 167.602 474.476 167.984C474.862 168.237 475.142 168.576 475.315 169.002C475.489 169.385 475.705 169.746 475.963 170.085C476.092 170.255 476.179 170.468 476.223 170.724C476.268 170.979 476.376 171.213 476.548 171.425C476.764 171.722 476.916 172.169 477.006 172.766C477.138 173.32 477.206 173.917 477.21 174.557C477.257 175.196 477.262 175.858 477.224 176.541C477.186 177.181 477.147 177.757 477.108 178.27C477.026 178.697 476.944 179.103 476.861 179.487C476.778 179.829 476.695 180.235 476.613 180.705C476.572 180.919 476.467 181.154 476.298 181.411C476.172 181.668 476.067 181.904 475.983 182.118C475.648 182.931 475.099 183.724 474.336 184.497L473.764 185.141C473.594 185.228 473.446 185.335 473.319 185.464C473.192 185.593 473.043 185.722 472.873 185.851C472.662 186.066 472.407 186.239 472.109 186.369C471.854 186.499 471.62 186.671 471.409 186.886C470.811 186.89 470.3 187 469.875 187.216C469.492 187.432 469.045 187.457 468.531 187.29C468.105 187.293 467.721 187.36 467.381 187.49C467.04 187.578 466.699 187.623 466.358 187.625L465.974 187.628C465.975 187.841 466.212 188.202 466.685 188.711C467.158 189.22 467.503 189.686 467.719 190.112C468.063 190.451 468.364 190.768 468.622 191.065C468.922 191.319 469.245 191.637 469.589 192.019C470.147 192.527 470.555 192.951 470.813 193.29C471.072 193.587 471.48 193.989 472.038 194.497C472.295 194.709 472.597 195.134 472.943 195.771C473.331 196.366 473.654 196.769 473.911 196.98C474.17 197.363 474.321 197.618 474.365 197.745C474.451 197.873 474.58 198.021 474.752 198.191C475.097 198.657 475.377 199.082 475.593 199.465C475.809 199.805 476.046 200.144 476.304 200.484C476.093 200.869 475.797 201.255 475.416 201.642C475.035 202.071 474.547 202.459 473.952 202.804C473.866 202.677 473.737 202.55 473.566 202.423C473.394 202.339 473.265 202.212 473.179 202.042C473.093 201.957 472.792 201.703 472.278 201.28C471.805 200.857 471.397 200.454 471.053 200.073C470.838 199.775 470.472 199.394 469.957 198.928C469.484 198.419 468.947 197.911 468.346 197.403C467.745 196.896 467.208 196.387 466.736 195.879C466.262 195.327 465.897 194.903 465.639 194.606C465.51 194.479 465.295 194.289 464.995 194.035C464.694 193.738 464.372 193.463 464.029 193.21C463.685 192.913 463.363 192.638 463.063 192.384C462.762 192.088 462.547 191.876 462.418 191.749C462.334 191.835 462.27 191.921 462.228 192.006C462.229 192.049 462.208 192.113 462.166 192.199C462.124 192.284 462.103 192.37 462.103 192.455C462.109 193.308 462.072 194.119 461.992 194.888C461.955 195.614 461.939 196.339 461.944 197.064C461.946 197.448 461.928 197.854 461.888 198.281C461.891 198.665 461.894 199.113 461.898 199.625L461.913 201.865C461.828 201.865 461.679 201.866 461.465 201.868C461.252 201.912 461.018 201.956 460.762 202.001C460.294 202.089 459.824 202.114 459.355 202.075C458.928 202.078 458.501 202.081 458.075 202.084C457.52 202.087 457.051 202.091 456.667 202.093C456.326 202.096 455.984 202.013 455.641 201.845C455.428 201.846 455.3 201.847 455.257 201.847C455.214 201.848 455.086 201.742 454.871 201.53L454.899 196.474L455.022 195.641L454.879 193.594L454.961 187.065C455.043 186.51 455.061 186.104 455.017 185.849C455.015 185.593 455.055 185.251 455.138 184.824ZM466.221 177.258C466.303 176.745 466.342 176.233 466.338 175.721C466.334 175.166 466.31 174.676 466.264 174.249C466.262 173.993 466.176 173.823 466.004 173.739C465.875 173.527 465.746 173.378 465.617 173.294C465.531 173.209 465.424 173.125 465.295 173.04C464.995 172.786 464.674 172.597 464.331 172.471C463.989 172.303 463.647 172.177 463.305 172.094C463.177 172.095 463.071 172.181 462.987 172.352C462.944 172.438 462.924 172.502 462.924 172.545L462.97 179.073L464.058 179.065C464.269 178.85 464.482 178.742 464.695 178.741C464.908 178.696 465.099 178.567 465.269 178.353C465.523 178.137 465.714 177.987 465.842 177.901C466.011 177.771 466.138 177.557 466.221 177.258ZM501.903 193.52C502.418 193.986 502.933 194.43 503.448 194.853C503.963 195.234 504.414 195.615 504.8 195.996C505.058 196.207 505.401 196.504 505.831 196.885C506.26 197.223 506.645 197.455 506.987 197.581C507.202 197.792 507.438 197.983 507.695 198.152C507.995 198.32 508.231 198.489 508.403 198.659C508.618 198.871 508.833 199.082 509.048 199.294C509.262 199.463 509.434 199.676 509.564 199.931C509.522 200.016 509.48 200.123 509.438 200.252C509.354 200.465 509.249 200.637 509.122 200.766C508.783 201.109 508.508 201.431 508.297 201.732C508.086 202.074 507.874 202.353 507.662 202.568L507.154 203.084C507.069 203.17 507.027 203.234 507.027 203.276C506.814 203.278 506.621 203.194 506.45 203.025C506.278 202.855 506.085 202.686 505.87 202.517C505.313 202.179 504.927 201.905 504.712 201.693C504.54 201.523 504.176 201.355 503.621 201.188C503.492 201.104 503.256 200.978 502.914 200.809C502.614 200.641 502.4 200.514 502.271 200.43C501.715 200.263 501.18 199.989 500.666 199.609C500.151 199.229 499.594 198.87 498.994 198.533L493.979 195.304C493.551 195.093 493.144 194.862 492.758 194.608C492.415 194.355 492.03 194.123 491.601 193.912C491.302 193.744 491.044 193.596 490.83 193.47C490.658 193.3 490.444 193.11 490.186 192.898C489.843 192.687 489.479 192.477 489.094 192.266C488.708 192.055 488.344 191.887 488.002 191.762L487.488 191.509L487.491 191.893C487.493 192.234 487.453 192.555 487.37 192.854C487.329 193.153 487.31 193.409 487.311 193.622C487.276 194.732 487.22 195.842 487.143 196.952C487.065 198.019 487.03 199.107 487.037 200.217C487.04 200.558 487.021 200.899 486.981 201.241C486.983 201.582 486.879 201.924 486.668 202.267L486.348 202.269C485.836 202.273 485.409 202.255 485.067 202.214C484.726 202.217 484.321 202.241 483.852 202.287C483.511 202.332 483.212 202.334 482.956 202.293C482.7 202.295 482.401 202.297 482.06 202.299C482.016 202.172 481.952 202.066 481.866 201.981C481.78 201.896 481.736 201.79 481.735 201.662C481.815 200.893 481.786 199.699 481.646 198.078C481.55 196.458 481.494 194.623 481.48 192.575C481.476 192.021 481.472 191.487 481.469 190.975C481.508 190.463 481.504 189.93 481.457 189.375C481.367 188.693 481.32 188.011 481.315 187.328C481.31 186.646 481.327 185.942 481.364 185.216L481.352 183.424C481.347 182.784 481.321 182.144 481.274 181.504C481.227 180.822 481.201 180.14 481.196 179.457C481.193 179.116 481.191 178.774 481.189 178.433C481.229 178.091 481.269 177.75 481.309 177.408C481.307 177.067 481.262 176.704 481.174 176.321C481.128 175.937 481.147 175.575 481.23 175.233C481.229 175.105 481.227 174.721 481.222 174.081C481.26 173.44 481.277 172.736 481.271 171.968C481.266 171.2 481.239 170.454 481.192 169.729C481.186 168.961 481.182 168.385 481.179 168.001L481.029 164.738C481.24 164.523 481.368 164.415 481.41 164.415C481.495 164.372 481.645 164.349 481.858 164.348C481.943 164.347 482.007 164.368 482.05 164.411C482.093 164.41 482.136 164.41 482.178 164.41C482.221 164.409 482.456 164.429 482.883 164.469C483.309 164.466 483.779 164.484 484.291 164.523C484.803 164.519 485.273 164.537 485.7 164.577C486.169 164.574 486.425 164.593 486.468 164.636C486.513 164.977 486.536 165.254 486.538 165.467C486.539 165.68 486.52 165.894 486.478 166.108C486.48 166.321 486.46 166.577 486.42 166.876C486.422 167.132 486.424 167.473 486.427 167.9L486.435 169.116C486.273 170.312 486.175 171.529 486.141 172.766C486.149 173.961 486.158 175.134 486.166 176.286C486.132 177.566 486.075 178.505 485.993 179.103C485.955 179.658 485.938 180.32 485.943 181.088L485.953 182.432C485.954 182.645 485.934 182.816 485.892 182.944C485.893 183.072 486 183.135 486.214 183.134L486.531 182.812C486.743 182.597 486.955 182.361 487.166 182.103C487.378 181.803 487.568 181.567 487.738 181.395C487.78 181.31 487.907 181.159 488.118 180.944C488.33 180.687 488.478 180.515 488.563 180.429C489.027 179.658 489.428 179.101 489.767 178.757C490.149 178.413 490.508 177.941 490.845 177.341C491.098 176.955 491.33 176.57 491.541 176.184C491.794 175.799 492.091 175.434 492.429 175.09C492.429 175.09 492.472 175.047 492.557 174.961C492.767 174.49 493.02 174.062 493.316 173.676C493.611 173.247 493.907 172.797 494.202 172.326C494.54 171.854 494.857 171.361 495.152 170.847C495.49 170.333 495.827 169.839 496.165 169.368L499.902 163.773L500.662 162.616C500.747 162.487 500.874 162.337 501.043 162.165C501.255 161.993 501.425 161.864 501.552 161.778C501.724 161.905 501.981 162.074 502.324 162.284C502.667 162.495 503.074 162.77 503.546 163.108C503.889 163.319 504.21 163.551 504.511 163.805C504.853 164.016 505.133 164.377 505.35 164.887C505.351 165.015 505.204 165.315 504.909 165.786C504.613 166.258 504.297 166.772 503.959 167.329C503.622 167.843 503.305 168.336 503.01 168.808C502.714 169.237 502.545 169.494 502.503 169.579C502.25 170.008 502.019 170.457 501.809 170.928C501.641 171.356 501.451 171.677 501.239 171.892C500.901 172.321 500.584 172.793 500.289 173.307C500.036 173.778 499.762 174.249 499.467 174.721C499.003 175.449 498.496 176.136 497.945 176.779C497.438 177.423 496.93 178.067 496.423 178.71C495.958 179.353 495.493 179.975 495.028 180.576C494.563 181.177 494.267 181.52 494.139 181.606C493.843 181.95 493.546 182.272 493.25 182.573C492.953 182.831 492.656 183.11 492.36 183.411C492.063 183.712 491.809 184.033 491.599 184.376C491.387 184.676 491.176 184.955 490.964 185.213C491.136 185.339 491.243 185.467 491.287 185.594C491.373 185.722 491.524 185.849 491.738 185.975C492.252 186.313 492.788 186.736 493.347 187.244C493.905 187.752 494.441 188.175 494.956 188.513C495.684 188.892 496.348 189.335 496.949 189.843C497.55 190.308 498.215 190.837 498.944 191.429C499.116 191.641 499.374 191.831 499.716 191.999C500.101 192.167 500.466 192.442 500.81 192.824C500.982 192.993 501.154 193.141 501.325 193.268C501.539 193.352 501.732 193.436 501.903 193.52Z" fill="#402A8C" fill-opacity="0.9"/>
</g>
<defs>
<clipPath id="clip0_195_2">
<rect width="633" height="909" fill="white" transform="matrix(0 -1 1 0 0 633)"/>
</clipPath>
</defs>
</svg>
